<?xml version="1.0" encoding="UTF-8"?>
<svg version="1.1" xmlns="http://www.w3.org/2000/svg" width="500" height="500">
<path d="M0 0 C1.85078911 0.65461212 1.85078911 0.65461212 3.7389679 1.32244873 C7.07849699 2.50378217 10.40947424 3.70766389 13.73937607 4.91582108 C17.26563091 6.19037437 20.79974208 7.44275395 24.33325195 8.69702148 C30.11293628 10.75105192 35.88862875 12.81591257 41.66162109 14.88867188 C52.3824309 18.73625435 63.13019932 22.50656601 73.87875366 26.27581787 C78.2560479 27.81221617 82.63136062 29.35421555 87.00672913 30.89608765 C98.97316034 35.11254892 110.94665575 39.30862013 122.92401123 43.493927 C124.21301413 43.94435218 125.50201559 44.39478146 126.79101562 44.84521484 C127.42959629 45.06836176 128.06817696 45.29150867 128.72610855 45.52141762 C136.88753008 48.37391803 145.04574515 51.23556998 153.2041626 54.09664917 C160.18449178 56.54305583 167.16934939 58.97583877 174.15888977 61.39579773 C178.34552602 62.84764971 182.52861628 64.30951728 186.71090698 65.77383423 C188.62918735 66.44291327 190.54900987 67.10759044 192.4704895 67.76742554 C211.07337702 74.15923157 211.07337702 74.15923157 217.9453125 79.85546875 C219.15960938 80.83773437 219.15960938 80.83773437 220.3984375 81.83984375 C230.69904615 91.96131138 233.97601361 104.74124167 234.10990906 118.89294434 C234.11157829 119.94173767 234.11157829 119.94173767 234.11328125 121.01171875 C234.11660965 121.75828735 234.11993805 122.50485596 234.12336731 123.27404785 C234.12839242 124.84040721 234.13077702 126.40677712 234.13061523 127.97314453 C234.13280696 130.34946475 234.15102388 132.72532375 234.16992188 135.1015625 C234.17285584 136.63411302 234.17484061 138.16666571 234.17578125 139.69921875 C234.18296677 140.39841431 234.19015228 141.09760986 234.19755554 141.81799316 C234.16328971 149.32798631 232.91794548 155.78627808 227.64453125 161.37890625 C223.3861771 165.07926917 218.91779638 166.22732365 213.36425781 166.13693237 C208.20444152 165.5365465 203.37849884 163.59041957 198.5078125 161.859375 C197.29600815 161.43960388 196.0842038 161.01983276 194.8356781 160.58734131 C191.55058335 159.44892829 188.27104811 158.29523801 184.99238205 157.13846207 C181.54236321 155.92418211 178.08738188 154.72417814 174.63305664 153.5222168 C166.39695351 150.65271163 158.169983 147.75755447 149.9453125 144.85546875 C148.79923523 144.45126709 147.65315796 144.04706543 146.47235107 143.63061523 C137.50289648 140.46577645 128.53690727 137.29125123 119.57617188 134.10180664 C105.06051228 128.93773822 90.50996383 123.87954046 75.9453125 118.85546875 C53.80812333 111.21717672 31.7156562 103.45886193 9.65763855 95.59487915 C4.96061748 93.92187542 0.25962505 92.2620059 -4.45176697 90.62989807 C-6.27412551 89.99829618 -8.09474961 89.36169654 -9.9152832 88.72485352 C-11.93937736 88.01723082 -13.96624799 87.31745764 -15.99682617 86.62866211 C-23.4851473 83.98966522 -29.43896075 80.92556601 -33.4296875 73.79296875 C-33.91179687 72.95636719 -34.39390625 72.11976562 -34.890625 71.2578125 C-36.82769953 67.26015869 -37.18640991 63.81170372 -37.23168945 59.38769531 C-37.24452469 58.29265686 -37.25735992 57.19761841 -37.27058411 56.06939697 C-37.27797104 54.89020691 -37.28535797 53.71101685 -37.29296875 52.49609375 C-37.3010405 51.27774841 -37.30911224 50.05940308 -37.31742859 48.80413818 C-37.33125763 46.22523416 -37.34198505 43.64631191 -37.34985352 41.06738281 C-37.36706087 37.13441076 -37.41095917 33.2022805 -37.45507812 29.26953125 C-37.46520592 26.76172492 -37.47372175 24.25391146 -37.48046875 21.74609375 C-37.49797684 20.57500061 -37.51548492 19.40390747 -37.53352356 18.19732666 C-37.51329761 10.53959315 -36.70337832 4.83585874 -31.3359375 -1.01953125 C-21.27156295 -7.37597833 -10.37976516 -3.8167046 0 0 Z " fill="#024BAD" transform="translate(152.0546875,55.14453125)"/>
<path d="M0 0 C0.67933594 -0.02835938 1.35867187 -0.05671875 2.05859375 -0.0859375 C10.21080186 -0.11531483 17.76425114 2.88443309 25.375 5.5 C26.82688721 5.9974472 26.82688721 5.9974472 28.30810547 6.50494385 C36.49014053 9.31803159 44.65270117 12.18566275 52.8125 15.0625 C54.0822702 15.50971769 55.35205585 15.95689153 56.62185669 16.40402222 C64.09305779 19.03539166 71.56160152 21.6742089 79.02880859 24.31689453 C82.08861563 25.39874371 85.14949903 26.47746545 88.2109375 27.5546875 C92.21828799 28.96544608 96.22208236 30.38572273 100.22219849 31.81686401 C101.60582324 32.3104198 102.99064102 32.80064491 104.37667847 33.28738403 C106.24280481 33.94370688 108.10400952 34.61397581 109.96484375 35.28515625 C111.47872681 35.82474976 111.47872681 35.82474976 113.02319336 36.37524414 C115.375 37.5 115.375 37.5 117.375 40.5 C117.5 43.4375 117.5 43.4375 116.375 46.5 C109.86023833 50.29098008 102.81749724 52.59424659 95.7109375 55.03515625 C93.8092337 55.69601599 91.90753039 56.35687716 90.00584698 57.01779556 C87.98375266 57.71941562 85.96075701 58.41837543 83.93746948 59.11654663 C79.68822531 60.58294981 75.44164275 62.05695179 71.19555664 63.5324707 C69.74965309 64.03484746 68.30374549 64.53721254 66.85783386 65.03956604 C65.7800319 65.41403461 65.7800319 65.41403461 64.68045616 65.79606819 C62.48799198 66.55750121 60.29528011 67.31821677 58.10249329 68.07872009 C44.65852812 72.74209798 31.2331116 77.45732343 17.8125 82.1875 C15.63657876 82.95384071 13.46063478 83.72011683 11.28466797 84.48632812 C6.9199521 86.02338708 2.55537454 87.56083775 -1.80908203 89.09863281 C-12.87079673 92.99608091 -23.93336274 96.89110937 -34.99630737 100.7850647 C-38.54660226 102.03490107 -42.09667392 103.28536996 -45.64672852 104.53588867 C-47.80614228 105.2960898 -49.96556559 106.0562638 -52.125 106.81640625 C-53.10359482 107.16130096 -54.08218964 107.50619568 -55.09043884 107.86154175 C-57.60066239 108.74478942 -60.11265353 109.62281513 -62.625 110.5 C-63.75164062 110.89823975 -64.87828125 111.29647949 -66.0390625 111.70678711 C-71.41636938 113.35622726 -75.83379655 113.12695586 -80.875 110.8125 C-85.63199014 108.17283684 -88.53860089 104.49317153 -90.625 99.5 C-90.88569641 96.90887451 -90.88569641 96.90887451 -90.8996582 93.94042969 C-90.90919022 92.82537048 -90.91872223 91.71031128 -90.92854309 90.5614624 C-90.92717598 88.75986664 -90.92717598 88.75986664 -90.92578125 86.921875 C-90.93006638 85.68133362 -90.9343515 84.44079224 -90.93876648 83.16265869 C-90.94598104 79.86458208 -90.94288615 76.56668781 -90.93719482 73.26861572 C-90.93749881 71.25790072 -90.94751448 69.24748218 -90.96118164 67.23681641 C-90.98574922 63.3608629 -90.98983402 59.48539687 -90.98828125 55.609375 C-90.997491 54.41640808 -91.00670074 53.22344116 -91.01618958 51.99432373 C-90.97029664 43.6858111 -90.16276077 36.72321645 -84.4375 30.25 C-83.90769531 29.62609375 -83.37789063 29.0021875 -82.83203125 28.359375 C-76.52515964 23.0459752 -68.05009233 20.72528138 -60.3828125 18.05859375 C-58.63748734 17.44516869 -58.63748734 17.44516869 -56.85690308 16.8193512 C-54.40531295 15.95886141 -51.95283007 15.10091137 -49.49951172 14.24536133 C-45.76714052 12.94347876 -42.03766616 11.63356347 -38.30859375 10.32226562 C-35.91683295 9.48390047 -33.52491108 8.64599465 -31.1328125 7.80859375 C-30.02833771 7.42102402 -28.92386292 7.03345428 -27.78591919 6.63414001 C-8.64550937 -0.03172664 -8.64550937 -0.03172664 0 0 Z " fill="#034BAD" transform="translate(205.625,203.5)"/>
<path d="M0 0 C1.12535156 -0.05994141 1.12535156 -0.05994141 2.2734375 -0.12109375 C8.60059804 1.38186963 13.1213709 9.74606093 16.875 14.625 C17.51179688 15.44419922 18.14859375 16.26339844 18.8046875 17.10742188 C23.48425752 23.15601504 23.48425752 23.15601504 24.625 25.4375 C30.02239863 18.93193981 35.28870354 12.36165348 40.34912109 5.59106445 C43.40963343 1.54518328 43.40963343 1.54518328 45.625 0.4375 C47.68359375 0.234375 47.68359375 0.234375 50.0625 0.1875 C50.84496094 0.16171875 51.62742187 0.1359375 52.43359375 0.109375 C55.2263631 0.52754367 55.91854242 1.21243543 57.625 3.4375 C57.9992218 5.828125 57.9992218 5.828125 57.99731445 8.6875 C58.00665764 10.29431641 58.00665764 10.29431641 58.01618958 11.93359375 C58.00697983 13.08988281 57.99777008 14.24617188 57.98828125 15.4375 C57.98902901 17.21833984 57.98902901 17.21833984 57.98979187 19.03515625 C57.98744991 21.54689201 57.97771432 24.05863006 57.96118164 26.5703125 C57.93759438 30.42208775 57.94061945 34.27317093 57.94726562 38.125 C57.94168889 40.56250414 57.93457904 43.00000536 57.92578125 45.4375 C57.92669266 46.59378906 57.92760406 47.75007813 57.92854309 48.94140625 C57.91901108 50.01261719 57.90947906 51.08382812 57.8996582 52.1875 C57.89274712 53.60289062 57.89274712 53.60289062 57.88569641 55.046875 C57.625 57.4375 57.625 57.4375 55.625 60.4375 C53.09375 60.80078125 53.09375 60.80078125 50.125 60.75 C49.1453125 60.74613281 48.165625 60.74226563 47.15625 60.73828125 C44.625 60.4375 44.625 60.4375 42.625 58.4375 C42.30615234 55.45654297 42.30615234 55.45654297 42.2109375 51.6796875 C42.19157135 51.01663605 42.1722052 50.35358459 42.1522522 49.67044067 C42.09244046 47.55125823 42.04606612 45.4320215 42 43.3125 C41.96182155 41.87627831 41.92276989 40.44007955 41.8828125 39.00390625 C41.78673875 35.48198064 41.70271358 31.95988392 41.625 28.4375 C40.94953125 29.41332031 40.2740625 30.38914062 39.578125 31.39453125 C38.67741477 32.67991981 37.77635465 33.96506324 36.875 35.25 C36.4315625 35.89259766 35.988125 36.53519531 35.53125 37.19726562 C33.21202328 40.48852119 31.16980333 43.37031996 27.625 45.4375 C24.6875 45.9375 24.6875 45.9375 21.625 45.4375 C17.76902662 42.49478347 15.29443716 38.65381999 12.4609375 34.73828125 C11.74212402 33.74610596 11.02331055 32.75393066 10.28271484 31.73168945 C9.73566895 30.97460693 9.18862305 30.21752441 8.625 29.4375 C8.60518066 30.26999268 8.58536133 31.10248535 8.56494141 31.96020508 C8.48679258 35.052265 8.40009794 38.14393383 8.30761719 41.2355957 C8.25055908 43.2304536 8.20335558 45.2255854 8.15625 47.22070312 C8.09824219 49.10112305 8.09824219 49.10112305 8.0390625 51.01953125 C8.0076416 52.17686768 7.9762207 53.3342041 7.94384766 54.52661133 C7.625 57.4375 7.625 57.4375 5.625 60.4375 C3.09375 60.80078125 3.09375 60.80078125 0.125 60.75 C-0.8546875 60.74613281 -1.834375 60.74226563 -2.84375 60.73828125 C-5.375 60.4375 -5.375 60.4375 -7.375 58.4375 C-7.63569641 56.08447266 -7.63569641 56.08447266 -7.6496582 53.1015625 C-7.65919022 51.98700684 -7.66872223 50.87245117 -7.67854309 49.72412109 C-7.67763168 48.51578613 -7.67672028 47.30745117 -7.67578125 46.0625 C-7.68006638 44.82709473 -7.6843515 43.59168945 -7.68876648 42.31884766 C-7.69599381 39.03159469 -7.69287486 35.74452391 -7.68719482 32.45727539 C-7.6874997 30.43950195 -7.69754175 28.42202153 -7.71118164 26.40429688 C-7.73558083 22.54022304 -7.73984049 18.67664099 -7.73828125 14.8125 C-7.747491 13.60416504 -7.75670074 12.39583008 -7.76618958 11.15087891 C-7.75996078 10.03632324 -7.75373199 8.92176758 -7.74731445 7.7734375 C-7.74794388 6.78907715 -7.7485733 5.8047168 -7.7492218 4.79052734 C-7.62572861 4.01402832 -7.50223541 3.2375293 -7.375 2.4375 C-4.35292605 0.42278403 -3.45773301 0.10030966 0 0 Z " fill="#0B4FAD" transform="translate(235.375,366.5625)"/>
<path d="M0 0 C1.12535156 -0.04640625 1.12535156 -0.04640625 2.2734375 -0.09375 C8.18209997 1.3981382 11.96910805 8.41305161 15.4375 13.125 C15.92025391 13.77339844 16.40300781 14.42179687 16.90039062 15.08984375 C21.18642902 20.86058826 25.40321719 26.68218555 29.625 32.5 C29.63958252 31.60168457 29.65416504 30.70336914 29.66918945 29.77783203 C29.73019697 26.4489341 29.80433628 23.12087117 29.88745117 19.79248047 C29.92073178 18.35118658 29.94875404 16.90976137 29.97143555 15.46826172 C30.0049262 13.39754203 30.057233 11.32802907 30.11328125 9.2578125 C30.13946533 8.0114502 30.16564941 6.76508789 30.19262695 5.48095703 C30.33531006 4.49724121 30.47799316 3.51352539 30.625 2.5 C33.69856275 0.45095817 34.60098575 0.18373357 38.125 0.125 C38.8984375 0.09664063 39.671875 0.06828125 40.46875 0.0390625 C42.625 0.5 42.625 0.5 44.23649597 2.19932556 C45.90135315 4.95790189 45.9994986 6.56674805 45.99731445 9.77172852 C46.00665764 11.3484005 46.00665764 11.3484005 46.01618958 12.95692444 C46.00697983 14.08617844 45.99777008 15.21543243 45.98828125 16.37890625 C45.98902901 18.12432961 45.98902901 18.12432961 45.98979187 19.90501404 C45.98745218 22.36369536 45.97772994 24.82237911 45.96118164 27.28100586 C45.93756897 31.05148646 45.94062433 34.82126103 45.94726562 38.59179688 C45.94168959 40.9791709 45.93458018 43.36654193 45.92578125 45.75390625 C45.92669266 46.88518448 45.92760406 48.01646271 45.92854309 49.18202209 C45.91901108 50.22998459 45.90947906 51.27794708 45.8996582 52.35766602 C45.89505081 53.28047867 45.89044342 54.20329132 45.88569641 55.15406799 C45.625 57.5 45.625 57.5 43.625 60.5 C39.49107008 61.54675657 35.77046057 61.45260701 31.625 60.5 C28.04721867 57.75307784 25.78108912 54.36696758 23.3125 50.625 C22.66216797 49.7071875 22.01183594 48.789375 21.34179688 47.84375 C19.39825378 45.08667588 17.51106966 42.29660291 15.625 39.5 C14.30206281 37.59885267 12.97544388 35.70026012 11.64453125 33.8046875 C11.06421143 32.97694824 10.4838916 32.14920898 9.88598633 31.29638672 C9.46986084 30.7035791 9.05373535 30.11077148 8.625 29.5 C8.60518066 30.33249268 8.58536133 31.16498535 8.56494141 32.02270508 C8.48679258 35.114765 8.40009794 38.20643383 8.30761719 41.2980957 C8.25055908 43.2929536 8.20335558 45.2880854 8.15625 47.28320312 C8.09824219 49.16362305 8.09824219 49.16362305 8.0390625 51.08203125 C8.0076416 52.23936768 7.9762207 53.3967041 7.94384766 54.58911133 C7.625 57.5 7.625 57.5 5.625 60.5 C3.09375 60.86328125 3.09375 60.86328125 0.125 60.8125 C-0.8546875 60.80863281 -1.834375 60.80476563 -2.84375 60.80078125 C-5.375 60.5 -5.375 60.5 -7.375 58.5 C-7.63569641 56.19166565 -7.63569641 56.19166565 -7.6496582 53.27172852 C-7.65919022 52.1804213 -7.66872223 51.08911407 -7.67854309 49.96473694 C-7.67763168 48.78141281 -7.67672028 47.59808868 -7.67578125 46.37890625 C-7.68006638 45.1680687 -7.6843515 43.95723114 -7.68876648 42.70970154 C-7.69451835 40.14493435 -7.69500377 37.58015084 -7.69067383 35.01538086 C-7.68751585 31.08223743 -7.71095679 27.1498471 -7.73632812 23.21679688 C-7.73860114 20.72916762 -7.7393046 18.24153633 -7.73828125 15.75390625 C-7.747491 14.57260635 -7.75670074 13.39130646 -7.76618958 12.17420959 C-7.75996078 11.07975021 -7.75373199 9.98529083 -7.74731445 8.85766602 C-7.74794388 7.89329117 -7.7485733 6.92891632 -7.7492218 5.93531799 C-7.03661308 1.29788414 -4.42719073 0.06043946 0 0 Z " fill="#0F52AC" transform="translate(104.375,366.5)"/>
<path d="M0 0 C6.72331286 4.82189536 11.62709697 10.54476009 13.80078125 18.640625 C14.93850237 29.67651984 14.0886125 39.45393095 7.05078125 48.453125 C1.84919238 54.03757193 -3.96823386 57.38715586 -11.58984375 57.84375 C-22.92067179 57.98137139 -29.67268642 56.89506028 -38.1484375 48.9609375 C-44.01564032 42.3226166 -46.51285404 34.60102263 -46.34765625 25.8125 C-45.67418322 15.95852621 -42.05303743 9.12200394 -34.94921875 2.328125 C-24.8548191 -6.16451867 -11.26088274 -6.96054563 0 0 Z M-28.19921875 17.640625 C-30.94699429 22.10690898 -30.7150734 26.54656036 -30.19921875 31.640625 C-28.53203993 36.37892269 -26.3455983 38.8418188 -22.19921875 41.640625 C-17.13759039 43.32783445 -13.46491971 43.15548641 -8.51171875 41.140625 C-4.4714132 38.5653852 -2.62051783 35.14140543 -1.19921875 30.640625 C-0.5303255 25.19392283 -1.5729937 21.44027767 -4.19921875 16.640625 C-8.96223883 12.22611859 -12.20725311 11.17650079 -18.5859375 11.22265625 C-22.89149878 11.91128862 -25.51387697 14.31446303 -28.19921875 17.640625 Z " fill="#0F52AE" transform="translate(78.19921875,370.359375)"/>
<path d="M0 0 C0.92087402 -0.00241196 1.84174805 -0.00482391 2.79052734 -0.00730896 C4.7373485 -0.00632953 6.68419716 0.00708699 8.63085938 0.03198242 C11.61424166 0.06628256 14.59466198 0.05264979 17.578125 0.03320312 C19.46876264 0.04010158 21.35939261 0.04977396 23.25 0.0625 C24.59070557 0.0550602 24.59070557 0.0550602 25.95849609 0.04747009 C32.09771127 0.16447024 32.09771127 0.16447024 34.6875 2.44555664 C36.07100335 5.66760624 35.99607154 8.16557183 35.625 11.62890625 C34.51635742 13.82324219 34.51635742 13.82324219 32.625 15.62890625 C29.62231445 16.08300781 29.62231445 16.08300781 25.98828125 16.01953125 C24.04018555 16.00019531 24.04018555 16.00019531 22.05273438 15.98046875 C20.68097897 15.94704726 19.30923419 15.91318748 17.9375 15.87890625 C16.55406188 15.85884001 15.17059616 15.84058944 13.78710938 15.82421875 C10.39904351 15.77699832 7.01236759 15.71114694 3.625 15.62890625 C3.625 17.93890625 3.625 20.24890625 3.625 22.62890625 C4.79417969 22.60570312 5.96335938 22.5825 7.16796875 22.55859375 C8.71613942 22.53982804 10.26431703 22.5216287 11.8125 22.50390625 C12.58142578 22.48714844 13.35035156 22.47039062 14.14257812 22.453125 C18.39133884 22.41665495 21.80901401 22.50973733 25.625 24.62890625 C27.18971233 27.7583309 27.32201958 31.23972848 26.625 34.62890625 C25.21484375 36.87109375 25.21484375 36.87109375 22.625 38.62890625 C19.3604303 39.11464461 16.16606086 39.00529854 12.875 38.87890625 C11.54275391 38.85183594 11.54275391 38.85183594 10.18359375 38.82421875 C7.99629152 38.77717999 5.81120184 38.71147634 3.625 38.62890625 C3.625 40.93890625 3.625 43.24890625 3.625 45.62890625 C4.91917847 45.59748535 4.91917847 45.59748535 6.23950195 45.56542969 C9.4430751 45.49722723 12.64627816 45.44709311 15.8503418 45.40917969 C17.23653338 45.3890735 18.62264025 45.3617838 20.00854492 45.32714844 C22.00141906 45.278594 23.99491389 45.25806653 25.98828125 45.23828125 C27.78712769 45.20686035 27.78712769 45.20686035 29.62231445 45.17480469 C32.625 45.62890625 32.625 45.62890625 34.51708984 47.52612305 C36.37979601 51.06148845 35.93959506 53.66500854 35.625 57.62890625 C34.965 58.61890625 34.305 59.60890625 33.625 60.62890625 C31.76550293 60.99639893 31.76550293 60.99639893 29.48242188 60.98535156 C28.20099304 60.98985321 28.20099304 60.98985321 26.89367676 60.9944458 C25.50771301 60.9759256 25.50771301 60.9759256 24.09375 60.95703125 C23.14689331 60.95515808 22.20003662 60.95328491 21.2244873 60.95135498 C19.22042323 60.9446255 17.21637249 60.93069333 15.21240234 60.91015625 C12.13757176 60.8790335 9.06325363 60.86918992 5.98828125 60.86328125 C4.04426456 60.85411023 2.1002531 60.84373414 0.15625 60.83203125 C-0.76772583 60.82778137 -1.69170166 60.82353149 -2.64367676 60.81915283 C-3.49796265 60.80954529 -4.35224854 60.79993774 -5.23242188 60.79003906 C-5.98583862 60.78321106 -6.73925537 60.77638306 -7.51550293 60.76934814 C-9.375 60.62890625 -9.375 60.62890625 -11.375 59.62890625 C-12.35453748 56.69029382 -12.51247364 54.75003752 -12.53613281 51.68603516 C-12.54574036 50.68134186 -12.5553479 49.67664856 -12.56524658 48.64151001 C-12.56949646 47.55711639 -12.57374634 46.47272278 -12.578125 45.35546875 C-12.58382507 44.23957367 -12.58952515 43.12367859 -12.59539795 41.97396851 C-12.60484834 39.61188709 -12.61138208 37.24979249 -12.61523438 34.88769531 C-12.62494289 31.27515674 -12.65596782 27.66318634 -12.6875 24.05078125 C-12.69402981 21.7565138 -12.69928037 19.46224227 -12.703125 17.16796875 C-12.7154718 16.0876236 -12.7278186 15.00727844 -12.74053955 13.89419556 C-12.72851637 9.84387541 -12.58500877 6.3439126 -11.44042969 2.44702148 C-8.03321691 -0.5522118 -4.38546276 -0.06505162 0 0 Z " fill="#1456AF" transform="translate(167.375,366.37109375)"/>
<path d="M0 0 C1.25490234 -0.01998047 2.50980469 -0.03996094 3.80273438 -0.06054688 C12.14142386 -0.05615578 17.85347555 0.58965458 24.3359375 6.18359375 C25.00496094 7.02083984 25.00496094 7.02083984 25.6875 7.875 C26.14898437 8.43058594 26.61046875 8.98617188 27.0859375 9.55859375 C30.96062223 15.49401844 31.07014986 21.547343 30.3125 28.4375 C29.27044612 31.44106706 27.98650139 33.698225 26.3125 36.4375 C25.8175 37.4275 25.8175 37.4275 25.3125 38.4375 C26.51132395 41.39335029 27.82792755 44.25056931 29.21875 47.11914062 C30.52982009 49.97496691 31.33177088 52.07388889 31.1640625 55.23828125 C29.78541534 58.79873241 27.6793174 59.81643977 24.3125 61.4375 C20.81640625 61.4375 20.81640625 61.4375 17.3125 60.4375 C15.31640625 57.6015625 15.31640625 57.6015625 13.875 54.0625 C13.38128906 52.89976562 12.88757813 51.73703125 12.37890625 50.5390625 C11.3125 47.4375 11.3125 47.4375 11.3125 44.4375 C7.0225 44.4375 2.7325 44.4375 -1.6875 44.4375 C-1.66429687 45.42492187 -1.64109375 46.41234375 -1.6171875 47.4296875 C-1.59011719 49.35167969 -1.59011719 49.35167969 -1.5625 51.3125 C-1.53929687 52.58867187 -1.51609375 53.86484375 -1.4921875 55.1796875 C-1.6875 58.4375 -1.6875 58.4375 -3.6875 60.4375 C-6.21875 60.73828125 -6.21875 60.73828125 -9.1875 60.75 C-10.1671875 60.76675781 -11.146875 60.78351563 -12.15625 60.80078125 C-12.9915625 60.68089844 -13.826875 60.56101562 -14.6875 60.4375 C-16.90202075 57.11571887 -16.94325617 56.05863646 -16.9621582 52.1875 C-16.97169022 51.11628906 -16.98122223 50.04507813 -16.99104309 48.94140625 C-16.99013168 47.78511719 -16.98922028 46.62882812 -16.98828125 45.4375 C-16.99256638 44.25027344 -16.9968515 43.06304687 -17.00126648 41.83984375 C-17.007013 39.32813149 -17.00750769 36.81640259 -17.00317383 34.3046875 C-17.00001259 30.45283776 -17.02347468 26.60175479 -17.04882812 22.75 C-17.05110087 20.31250097 -17.05180473 17.87499987 -17.05078125 15.4375 C-17.059991 14.28121094 -17.06920074 13.12492187 -17.07868958 11.93359375 C-17.07246078 10.86238281 -17.06623199 9.79117187 -17.05981445 8.6875 C-17.06044388 7.74390625 -17.0610733 6.8003125 -17.0617218 5.828125 C-16.6875 3.4375 -16.6875 3.4375 -15.33822632 1.6346283 C-11.32820931 -1.27348844 -4.74362417 -0.02639346 0 0 Z M-1.6875 15.4375 C-1.6875 20.0575 -1.6875 24.6775 -1.6875 29.4375 C5.51612054 29.82288336 5.51612054 29.82288336 12.4375 28.3125 C14.51529524 26.48521653 14.51529524 26.48521653 15.4375 23.5625 C15.55415033 20.33186823 15.55415033 20.33186823 13.625 17.5625 C8.53523603 14.2973684 4.28651591 15.10925737 -1.6875 15.4375 Z " fill="#0F52AD" transform="translate(377.6875,366.5625)"/>
<path d="M0 0 C4.26027761 4.24439944 6.57444827 9.8107629 9.16796875 15.15625 C9.88839104 16.62608337 9.88839104 16.62608337 10.62336731 18.12561035 C11.63406387 20.19177798 12.64162471 22.25948209 13.64624023 24.32861328 C15.18415341 27.49311386 16.73489438 30.65108819 18.28710938 33.80859375 C19.26900433 35.81993427 20.25014976 37.8316409 21.23046875 39.84375 C21.69398239 40.78657837 22.15749603 41.72940674 22.63505554 42.70080566 C23.06252579 43.58522339 23.48999603 44.46964111 23.93041992 45.38085938 C24.30696213 46.15409546 24.68350433 46.92733154 25.07145691 47.72399902 C26.08026411 50.19673959 26.74728982 52.33657559 27 55 C23.99423746 58.57442032 21.77215292 60.64556942 17.1875 61.5625 C14 61 14 61 12.56640625 59.35546875 C10.47388131 56.00867069 8.76546999 52.53093999 7 49 C-0.26 49 -7.52 49 -15 49 C-15.78375 50.60875 -16.5675 52.2175 -17.375 53.875 C-18.75631642 56.71033371 -19.76425178 58.76425178 -22 61 C-25.87036189 61.52777662 -27.82955491 61.08206615 -31.375 59.375 C-34 57 -34 57 -34.4128418 54.39941406 C-33.8559129 49.81356074 -32.08932877 46.32690373 -30.01953125 42.234375 C-29.60966476 41.40093567 -29.19979828 40.56749634 -28.7775116 39.70880127 C-27.46686211 37.05024736 -26.1399978 34.40017448 -24.8125 31.75 C-23.93837345 29.9836068 -23.06531559 28.21668431 -22.19335938 26.44921875 C-20.53259787 23.08688807 -18.86204914 19.72975027 -17.18212891 16.37695312 C-15.89022029 13.79658374 -14.62229396 11.21073637 -13.37646484 8.60742188 C-12.73185303 7.26260742 -12.73185303 7.26260742 -12.07421875 5.890625 C-11.73350342 5.16391602 -11.39278809 4.43720703 -11.04174805 3.68847656 C-8.33633901 -0.69647982 -4.65268443 -0.5713823 0 0 Z M-4 26 C-4.66 27.11375 -5.32 28.2275 -6 29.375 C-6.37125 30.00148438 -6.7425 30.62796875 -7.125 31.2734375 C-8.15068348 32.97472667 -8.15068348 32.97472667 -8 35 C-5.03 35 -2.06 35 1 35 C-0.32 32.03 -1.64 29.06 -3 26 C-3.33 26 -3.66 26 -4 26 Z " fill="#0D51AD" transform="translate(331,367)"/>
<path d="M0 0 C18.15 0 36.3 0 55 0 C57 7 57 7 56.375 9.875 C55 12 55 12 53.15722656 12.62670898 C49.70469154 13.2241429 46.24151358 13.10259689 42.75 13.0625 C42.00492187 13.05798828 41.25984375 13.05347656 40.4921875 13.04882812 C38.6614236 13.03709246 36.83070127 13.0191585 35 13 C35.00444122 13.5593222 35.00888245 14.11864441 35.01345825 14.69491577 C35.05761149 20.50198824 35.08783294 26.30901325 35.10986328 32.11621094 C35.11993789 34.28517594 35.13359798 36.45412731 35.15087891 38.62304688 C35.17506323 41.73571126 35.18646832 44.84819651 35.1953125 47.9609375 C35.20563507 48.934935 35.21595764 49.9089325 35.22659302 50.91244507 C35.22681961 52.26361923 35.22681961 52.26361923 35.22705078 53.64208984 C35.231492 54.43706879 35.23593323 55.23204773 35.24050903 56.05111694 C35 58 35 58 33 60 C30.46875 60.30078125 30.46875 60.30078125 27.5 60.3125 C26.5203125 60.32925781 25.540625 60.34601563 24.53125 60.36328125 C23.6959375 60.24339844 22.860625 60.12351562 22 60 C19.90979847 56.86469771 19.7525405 56.1816823 19.77294922 52.62036133 C19.77310028 51.73967484 19.77325134 50.85898834 19.77340698 49.95161438 C19.78372955 49.00465195 19.79405212 48.05768951 19.8046875 47.08203125 C19.8075174 46.10965012 19.81034729 45.13726898 19.81326294 44.13542175 C19.82446401 41.02765634 19.84956852 37.92017841 19.875 34.8125 C19.88502989 32.70638437 19.89415573 30.60026422 19.90234375 28.49414062 C19.92440312 23.3293162 19.95893254 18.16470685 20 13 C18.35451172 13.03480469 18.35451172 13.03480469 16.67578125 13.0703125 C15.221361 13.08907921 13.76693336 13.10727844 12.3125 13.125 C11.59126953 13.14175781 10.87003906 13.15851563 10.12695312 13.17578125 C5.99249284 13.21353888 2.63117257 13.07992452 -1 11 C-2.57625631 6.27123107 -1.92888287 4.82220718 0 0 Z " fill="#0449A7" transform="translate(412,367)"/>
<path d="M0 0 C0.56332031 0.48726563 1.12664062 0.97453125 1.70703125 1.4765625 C0.40765625 1.4559375 -0.89171875 1.4353125 -2.23046875 1.4140625 C-8.67476213 1.4140625 -15.00138296 2.05588184 -21.29296875 3.4765625 C-21.29296875 4.4665625 -21.29296875 5.4565625 -21.29296875 6.4765625 C-22.28296875 6.9715625 -22.28296875 6.9715625 -23.29296875 7.4765625 C-23.75948082 9.60233032 -23.75948082 9.60233032 -23.91796875 12.0390625 C-23.99273437 12.86535156 -24.0675 13.69164062 -24.14453125 14.54296875 C-24.19351563 15.18105469 -24.2425 15.81914062 -24.29296875 16.4765625 C-23.34421875 16.1259375 -22.39546875 15.7753125 -21.41796875 15.4140625 C-18.29296875 14.4765625 -18.29296875 14.4765625 -16.29296875 15.4765625 C-16.29296875 14.8165625 -16.29296875 14.1565625 -16.29296875 13.4765625 C-14.97296875 14.1365625 -13.65296875 14.7965625 -12.29296875 15.4765625 C-13.79036458 16.6484375 -15.28776042 17.8203125 -16.78515625 18.9921875 C-19.19432257 21.36390564 -20.16826728 23.49514574 -20.59375 26.84375 C-20.62490136 33.5101408 -19.76307223 37.79473586 -15.10546875 42.8515625 C-14.50734375 43.3878125 -13.90921875 43.9240625 -13.29296875 44.4765625 C-15.59665611 45.54308442 -17.93315062 46.54077255 -20.29296875 47.4765625 C-20.95296875 47.1465625 -21.61296875 46.8165625 -22.29296875 46.4765625 C-21.96296875 47.4665625 -21.63296875 48.4565625 -21.29296875 49.4765625 C-22.28296875 50.1365625 -23.27296875 50.7965625 -24.29296875 51.4765625 C-24.29296875 52.1365625 -24.29296875 52.7965625 -24.29296875 53.4765625 C-21.64068063 54.55181444 -19.00928421 55.57112401 -16.29296875 56.4765625 C-16.29296875 57.4665625 -16.29296875 58.4565625 -16.29296875 59.4765625 C-22.70222526 58.16184322 -27.02381225 54.217449 -31.29296875 49.4765625 C-36.86626364 40.79381704 -38.45753742 32.11052313 -36.60546875 21.9765625 C-34.37278489 13.06111943 -28.68624395 6.74018723 -21.29296875 1.4765625 C-15.26643697 -1.67918707 -6.00440538 -3.98929829 0 0 Z " fill="#0E51AD" transform="translate(69.29296875,367.5234375)"/>
<path d="M0 0 C6.63048499 1.47344111 6.63048499 1.47344111 8.25 3.78125 C9.12820456 6.37927182 9.02209355 8.04976383 8.625 10.75 C8.45871094 11.94882812 8.45871094 11.94882812 8.2890625 13.171875 C8.14597656 14.07679688 8.14597656 14.07679688 8 15 C7.01 15 6.02 15 5 15 C5 16.65 5 18.3 5 20 C8.63 20 12.26 20 16 20 C15 22 15 22 13 24 C13.66 24.33 14.32 24.66 15 25 C14.125 28.875 14.125 28.875 13 30 C10.13732433 30.07325168 7.299281 30.09238205 4.4375 30.0625 C3.63119141 30.05798828 2.82488281 30.05347656 1.99414062 30.04882812 C-0.00393756 30.03700518 -2.00197783 30.01906914 -4 30 C-4 31.32 -4 32.64 -4 34 C-5.485 34.495 -5.485 34.495 -7 35 C-6.67 35.33 -6.34 35.66 -6 36 C-5.8125 39.4375 -5.8125 39.4375 -6 43 C-8 45 -8 45 -10.75 45.375 C-14.88596208 44.89777361 -16.91923561 43.78735826 -20 41 C-20.73931308 34.22335707 -17.64419829 29.17831966 -14.75 23.25 C-14.01330078 21.67025391 -14.01330078 21.67025391 -13.26171875 20.05859375 C-12.77832031 19.05441406 -12.29492188 18.05023438 -11.796875 17.015625 C-11.35698242 16.10071289 -10.91708984 15.18580078 -10.46386719 14.24316406 C-8.83752362 11.75102852 -7.67841058 11.14907547 -5 10 C-4.30062468 8.68352881 -3.63270867 7.34977849 -3 6 C-2.01 5.34 -1.02 4.68 0 4 C0 2.68 0 1.36 0 0 Z " fill="#074CAC" transform="translate(317,383)"/>
<path d="M0 0 C3.64581687 -0.02887512 7.29160463 -0.04675585 10.9375 -0.0625 C12.49887695 -0.07506836 12.49887695 -0.07506836 14.09179688 -0.08789062 C15.57583008 -0.09272461 15.57583008 -0.09272461 17.08984375 -0.09765625 C18.46450806 -0.10551147 18.46450806 -0.10551147 19.86694336 -0.11352539 C22 0 22 0 23 1 C24.63954889 0.7633421 26.27861465 0.52266913 27.91455078 0.26220703 C31.58158357 -0.19885516 35.24753834 -0.10360497 38.9375 -0.0625 C39.71673828 -0.05798828 40.49597656 -0.05347656 41.29882812 -0.04882812 C43.19925268 -0.03716908 45.09963706 -0.01923877 47 0 C47 0.33 47 0.66 47 1 C41.72 1 36.44 1 31 1 C31.01047363 2.35270996 31.02094727 3.70541992 31.03173828 5.09912109 C31.06786382 10.10479092 31.09087329 15.11044917 31.10986328 20.11621094 C31.11993789 22.28517594 31.13359798 24.45412731 31.15087891 26.62304688 C31.17506323 29.73571126 31.18646832 32.84819651 31.1953125 35.9609375 C31.20563507 36.934935 31.21595764 37.9089325 31.22659302 38.91244507 C31.22674408 39.81322784 31.22689514 40.71401062 31.22705078 41.64208984 C31.231492 42.43706879 31.23593323 43.23204773 31.24050903 44.05111694 C31 46 31 46 29 48 C26.46875 48.30078125 26.46875 48.30078125 23.5 48.3125 C22.5203125 48.32925781 21.540625 48.34601563 20.53125 48.36328125 C19.6959375 48.24339844 18.860625 48.12351562 18 48 C15.90979847 44.86469771 15.7525405 44.1816823 15.77294922 40.62036133 C15.77310028 39.73967484 15.77325134 38.85898834 15.77340698 37.95161438 C15.78372955 37.00465195 15.79405212 36.05768951 15.8046875 35.08203125 C15.8075174 34.10965012 15.81034729 33.13726898 15.81326294 32.13542175 C15.82446401 29.02765634 15.84956852 25.92017841 15.875 22.8125 C15.88502989 20.70638437 15.89415573 18.60026422 15.90234375 16.49414062 C15.92440312 11.3293162 15.95893254 6.16470685 16 1 C10.72 1 5.44 1 0 1 C0 0.67 0 0.34 0 0 Z " fill="#1D5EB3" transform="translate(416,379)"/>
<path d="M0 0 C2.475 0.495 2.475 0.495 5 1 C5.66 2.98 6.32 4.96 7 7 C6.34 7 5.68 7 5 7 C3.79371992 9.33214148 2.8345262 11.49642139 2 14 C-0.6246601 14.19430855 -3.24946765 14.38073238 -5.875 14.5625 C-6.99455078 14.64661133 -6.99455078 14.64661133 -8.13671875 14.73242188 C-13.7734375 15.11328125 -13.7734375 15.11328125 -16 14 C-16 14.66 -16 15.32 -16 16 C-19.96 16.495 -19.96 16.495 -24 17 C-24 14.03 -24 11.06 -24 8 C-23.01 7.67 -22.02 7.34 -21 7 C-21 6.01 -21 5.02 -21 4 C-16.5600324 1.8456962 -12.52581226 1.58254154 -7.6875 1.375 C-6.94693359 1.33632813 -6.20636719 1.29765625 -5.44335938 1.2578125 C-3.62928691 1.16418295 -1.81467884 1.08103149 0 1 C0 0.67 0 0.34 0 0 Z " fill="#054BAC" transform="translate(69,367)"/>
<path d="M0 0 C1.134375 0.020625 2.26875 0.04125 3.4375 0.0625 C2.1175 0.3925 0.7975 0.7225 -0.5625 1.0625 C-1.46058531 4.14016519 -1.68898831 6.88937374 -1.69189453 10.09057617 C-1.69504669 11.08808395 -1.69819885 12.08559174 -1.70144653 13.11332703 C-1.6994223 14.1832338 -1.69739807 15.25314056 -1.6953125 16.35546875 C-1.69674759 18.00812492 -1.69674759 18.00812492 -1.69821167 19.69416809 C-1.69889168 22.0199896 -1.69704988 24.34581301 -1.69287109 26.67163086 C-1.68750507 30.2466249 -1.69283001 33.82149417 -1.69921875 37.39648438 C-1.69855824 39.65364611 -1.69727763 41.91080777 -1.6953125 44.16796875 C-1.69733673 45.24394821 -1.69936096 46.31992767 -1.70144653 47.42851257 C-1.69829437 48.41656387 -1.69514221 49.40461517 -1.69189453 50.42260742 C-1.69109894 51.29656662 -1.69030334 52.17052582 -1.68948364 53.07096863 C-1.7826825 55.06254374 -1.7826825 55.06254374 -0.5625 56.0625 C0.78497084 56.29325082 2.14127565 56.47403063 3.5 56.625 C4.799375 56.769375 6.09875 56.91375 7.4375 57.0625 C7.4375 56.4025 7.4375 55.7425 7.4375 55.0625 C8.0975 55.0625 8.7575 55.0625 9.4375 55.0625 C9.4375 45.1625 9.4375 35.2625 9.4375 25.0625 C10.7575 25.0625 12.0775 25.0625 13.4375 25.0625 C14.5 27.4375 14.5 27.4375 15.4375 30.0625 C15.1075 30.7225 14.7775 31.3825 14.4375 32.0625 C13.4475 30.7425 12.4575 29.4225 11.4375 28.0625 C11.41768066 28.89499268 11.39786133 29.72748535 11.37744141 30.58520508 C11.29929258 33.677265 11.21259794 36.76893383 11.12011719 39.8605957 C11.06305908 41.8554536 11.01585558 43.8505854 10.96875 45.84570312 C10.91074219 47.72612305 10.91074219 47.72612305 10.8515625 49.64453125 C10.8201416 50.80186768 10.7887207 51.9592041 10.75634766 53.15161133 C10.4375 56.0625 10.4375 56.0625 8.4375 59.0625 C5.90625 59.42578125 5.90625 59.42578125 2.9375 59.375 C1.9578125 59.37113281 0.978125 59.36726563 -0.03125 59.36328125 C-2.5625 59.0625 -2.5625 59.0625 -4.5625 57.0625 C-4.80973816 54.70274353 -4.80973816 54.70274353 -4.80541992 51.71069336 C-4.80849655 50.59291 -4.81157318 49.47512665 -4.81474304 48.32347107 C-4.80755753 47.11199905 -4.80037201 45.90052704 -4.79296875 44.65234375 C-4.79251053 43.4145668 -4.79205231 42.17678986 -4.7915802 40.90150452 C-4.7877786 37.60891953 -4.77475824 34.31652641 -4.75811768 31.02398682 C-4.74466164 27.66898353 -4.74784184 24.3140137 -4.74804688 20.95898438 C-4.74313168 18.41926883 -4.73730335 15.87955485 -4.73046875 13.33984375 C-4.72935593 12.1263475 -4.7282431 10.91285126 -4.72709656 9.6625824 C-4.72071671 8.5479512 -4.71433685 7.43332001 -4.70776367 6.28491211 C-4.70395187 5.29833115 -4.70014008 4.31175018 -4.69621277 3.29527283 C-4.47294414 -0.43292848 -3.89183346 0.06827778 0 0 Z " fill="#275FAA" transform="translate(232.5625,367.9375)"/>
<path d="M0 0 C0.99 0 1.98 0 3 0 C3 0.66 3 1.32 3 2 C3.99 2 4.98 2 6 2 C6 3.32 6 4.64 6 6 C6.99 6.33 7.98 6.66 9 7 C10.46820301 10.67050752 10.5452025 15.10173575 11 19 C7.57461423 21.1079297 4.97599772 21.81142811 1 21 C-1.46142621 18.17225187 -4 14.84859747 -4 11 C-2.68 11.33 -1.36 11.66 0 12 C0 11.01 0 10.02 0 9 C0.66 9 1.32 9 2 9 C0.74458443 6.48916886 -0.50063488 6.12874554 -3 5 C-2.01 4.67 -1.02 4.34 0 4 C0 2.68 0 1.36 0 0 Z " fill="#1253AF" transform="translate(344,407)"/>
<path d="M0 0 C0.66 0 1.32 0 2 0 C2.04975831 4.83803846 2.08588788 9.67592509 2.10986328 14.51416016 C2.11986737 16.15709023 2.13347494 17.80000274 2.15087891 19.44287109 C2.17537515 21.81612505 2.18653917 24.18914185 2.1953125 26.5625 C2.20563507 27.28679199 2.21595764 28.01108398 2.22659302 28.75732422 C2.22823168 36.35197998 1.03951699 42.85987666 -4.30078125 48.5234375 C-8.10637567 51.83036782 -12.10653518 53.14258121 -17.0625 53.3125 C-20.73609594 53.02094477 -23.59404702 52.36238119 -27 51 C-23.31599416 49.76895845 -20.08525024 50.09232748 -16.25 50.4375 C-15.07953125 50.53933594 -13.9090625 50.64117187 -12.703125 50.74609375 C-11.81109375 50.82988281 -10.9190625 50.91367188 -10 51 C-10 49.02 -10 47.04 -10 45 C-9.4225 44.9175 -8.845 44.835 -8.25 44.75 C-5.12637972 43.70879324 -3.94652789 42.68486605 -2 40 C-0.68904747 31.7179688 -0.67151899 23.30582808 -0.4375 14.9375 C-0.39421245 13.4850161 -0.35059526 12.03254199 -0.30664062 10.58007812 C-0.20062746 7.05349009 -0.09907252 3.52679065 0 0 Z " fill="#5B83B9" transform="translate(384,168)"/>
<path d="M0 0 C3.53233755 1.17744585 3.86308075 1.95605641 5.6875 5.0625 C6.34298828 6.16271484 6.34298828 6.16271484 7.01171875 7.28515625 C7.50091797 8.13400391 7.50091797 8.13400391 8 9 C5.61435923 8.42415568 3.33317216 7.77772405 1 7 C1 8.32 1 9.64 1 11 C1 14.51716303 0.17554415 15.37121748 -2 18 C-1.34 18.33 -0.68 18.66 0 19 C-0.99 19 -1.98 19 -3 19 C-4.69630313 17.03123367 -6.19536118 15.11326838 -7.6875 13 C-8.10322266 12.42765625 -8.51894531 11.8553125 -8.94726562 11.265625 C-9.97356861 9.85003468 -10.98793399 8.42580369 -12 7 C-10.35 5.35 -8.7 3.7 -7 2 C-6.67 2.66 -6.34 3.32 -6 4 C-5.071875 3.319375 -4.14375 2.63875 -3.1875 1.9375 C-2.135625 1.298125 -1.08375 0.65875 0 0 Z " fill="#1655AE" transform="translate(126,391)"/>
<path d="M0 0 C0.56332031 0.48726563 1.12664062 0.97453125 1.70703125 1.4765625 C0.40765625 1.4559375 -0.89171875 1.4353125 -2.23046875 1.4140625 C-8.67476213 1.4140625 -15.00138296 2.05588184 -21.29296875 3.4765625 C-21.29296875 4.4665625 -21.29296875 5.4565625 -21.29296875 6.4765625 C-22.28296875 6.9715625 -22.28296875 6.9715625 -23.29296875 7.4765625 C-23.29296875 9.1265625 -23.29296875 10.7765625 -23.29296875 12.4765625 C-23.93234375 12.7240625 -24.57171875 12.9715625 -25.23046875 13.2265625 C-27.48038416 14.29218683 -27.48038416 14.29218683 -28.04296875 16.6015625 C-28.16671875 17.5296875 -28.16671875 17.5296875 -28.29296875 18.4765625 C-28.29296875 17.4865625 -28.29296875 16.4965625 -28.29296875 15.4765625 C-29.61296875 15.8065625 -30.93296875 16.1365625 -32.29296875 16.4765625 C-32.62296875 18.1265625 -32.95296875 19.7765625 -33.29296875 21.4765625 C-33.95296875 21.4765625 -34.61296875 21.4765625 -35.29296875 21.4765625 C-35.62296875 22.4665625 -35.95296875 23.4565625 -36.29296875 24.4765625 C-35.77138552 16.13123076 -32.01586797 10.8654663 -26.04296875 5.1640625 C-19.52563262 -0.31911782 -7.9761596 -5.29932239 0 0 Z " fill="#2C66B0" transform="translate(69.29296875,367.5234375)"/>
<path d="M0 0 C3.63 0 7.26 0 11 0 C10 2 10 2 8 4 C8.66 4.33 9.32 4.66 10 5 C9.125 8.875 9.125 8.875 8 10 C5.68925832 10.09932392 3.37537058 10.12969618 1.0625 10.125 C-0.83822266 10.12886719 -0.83822266 10.12886719 -2.77734375 10.1328125 C-6 10 -6 10 -8 9 C-7 7 -7 7 -5 5 C-4.01 5 -3.02 5 -2 5 C-2 4.34 -2 3.68 -2 3 C-1.34 2.34 -0.68 1.68 0 1 C0 0.67 0 0.34 0 0 Z " fill="#0149AB" transform="translate(322,403)"/>
<path d="M0 0 C0.33 0 0.66 0 1 0 C0.56913206 3.5905662 0.0607025 6.82463722 -1.125 10.25 C-2.31189996 13.04594318 -2.31189996 13.04594318 -1 16 C-0.34 16.33 0.32 16.66 1 17 C1 18.65 1 20.3 1 22 C2.65 22 4.3 22 6 22 C5.67 22.99 5.34 23.98 5 25 C1.16753223 25.36499693 -0.86465013 25.06516845 -4.375 23.375 C-7 21 -7 21 -7.3828125 18.34375 C-6.89621848 14.09350019 -5.40285818 10.91602246 -3.5 7.125 C-3.16613281 6.43664062 -2.83226562 5.74828125 -2.48828125 5.0390625 C-1.66928273 3.35426554 -0.83606409 1.67639381 0 0 Z " fill="#3067B1" transform="translate(304,403)"/>
<path d="M0 0 C0.66 0 1.32 0 2 0 C3.82240475 3.55751672 5.6311511 7.12180757 7.4375 10.6875 C7.95376953 11.69490234 8.47003906 12.70230469 9.00195312 13.74023438 C9.49501953 14.71669922 9.98808594 15.69316406 10.49609375 16.69921875 C10.95169678 17.59471436 11.4072998 18.49020996 11.87670898 19.4128418 C13.00491745 22.01132585 13.73831502 24.17818803 14 27 C13.34 27.99 12.68 28.98 12 30 C11.34 30 10.68 30 10 30 C9.83197949 28.54182203 9.66562857 27.0834516 9.5 25.625 C9.4071875 24.81289063 9.314375 24.00078125 9.21875 23.1640625 C9 21 9 21 9 19 C7.35 19 5.7 19 4 19 C4.66 18.67 5.32 18.34 6 18 C6 16.68 6 15.36 6 14 C5.34 14 4.68 14 4 14 C0.74031891 4.58997722 0.74031891 4.58997722 0 0 Z " fill="#396DB5" transform="translate(344,395)"/>
<path d="M0 0 C1.32 0.33 2.64 0.66 4 1 C4.042721 2.66611905 4.04063832 4.33382885 4 6 C3.67 6.33 3.34 6.66 3 7 C4.32 7 5.64 7 7 7 C7 8.32 7 9.64 7 11 C3.60535554 13.08901197 0.95158471 13.34361606 -3 13 C-5 11 -5 11 -5.3125 8.5 C-5.209375 7.675 -5.10625 6.85 -5 6 C-4.01 5.34 -3.02 4.68 -2 4 C-0.80767387 1.94996045 -0.80767387 1.94996045 0 0 Z " fill="#0149AD" transform="translate(400,412)"/>
<path d="M0 0 C0.33 0.66 0.66 1.32 1 2 C0.57367279 2.48975815 0.14734558 2.9795163 -0.29190063 3.4841156 C-5.66514707 10.40951224 -5.79878314 16.23426433 -5.5859375 24.78515625 C-5.57744781 26.08198837 -5.56895813 27.3788205 -5.56021118 28.71495056 C-5.53749433 32.13340922 -5.47872877 35.550295 -5.4119873 38.96813965 C-5.35018752 42.4674757 -5.32311667 45.96707036 -5.29296875 49.46679688 C-5.22896134 56.31183687 -5.12679779 63.15584256 -5 70 C-6.9280306 66.74368797 -7.26070927 64.29418851 -7.29052734 60.53222656 C-7.30328705 59.43718811 -7.31604675 58.34214966 -7.32919312 57.21392822 C-7.33141876 56.03473816 -7.33364441 54.8555481 -7.3359375 53.640625 C-7.3425943 52.42227966 -7.3492511 51.20393433 -7.35610962 49.94866943 C-7.36623647 47.36976633 -7.37092663 44.79083703 -7.37060547 42.21191406 C-7.374968 38.27885321 -7.41126057 34.34692403 -7.44921875 30.4140625 C-7.45508907 27.90625383 -7.45905702 25.39843984 -7.4609375 22.890625 C-7.47530853 21.71953186 -7.48967957 20.54843872 -7.50448608 19.34185791 C-7.46611609 12.43488237 -6.79679521 7.83818454 -3 2 C-2.01 1.34 -1.02 0.68 0 0 Z " fill="#668DBC" transform="translate(122,54)"/>
<path d="M0 0 C18.15 0 36.3 0 55 0 C55 0.33 55 0.66 55 1 C37.18 1 19.36 1 1 1 C1 3.97 1 6.94 1 10 C1.99 10 2.98 10 4 10 C4 10.66 4 11.32 4 12 C2.35 11.67 0.7 11.34 -1 11 C-2.13218374 6.13160991 -1.97821674 4.94554184 0 0 Z " fill="#5379A9" transform="translate(412,367)"/>
<path d="M0 0 C0.66 0 1.32 0 2 0 C1.20646205 3.70317711 -0.29674472 6.67622536 -2.0625 10 C-3.30714207 12.65523642 -3.86770154 15.25030874 -4.375 18.125 C-5 20 -5 20 -8 22 C-8.515625 22.86625 -9.03125 23.7325 -9.5625 24.625 C-10.036875 25.40875 -10.51125 26.1925 -11 27 C-11.66 27 -12.32 27 -13 27 C-11.3444886 21.49362511 -8.96617074 16.42659482 -6.5 11.25 C-6.09652344 10.38761719 -5.69304687 9.52523438 -5.27734375 8.63671875 C-4.88675781 7.81300781 -4.49617188 6.98929687 -4.09375 6.140625 C-3.73990234 5.39329102 -3.38605469 4.64595703 -3.02148438 3.87597656 C-2 2 -2 2 0 0 Z " fill="#1A57AB" transform="translate(322,368)"/>
<path d="M0 0 C0.66 0 1.32 0 2 0 C4.97851562 6.07617188 4.97851562 6.07617188 5.0625 9.6875 C3.43919172 13.22058272 1.46440708 14.33195215 -2 16 C-5.875 15.75 -5.875 15.75 -9 15 C-9.33 13.68 -9.66 12.36 -10 11 C-9.39671875 11.08378906 -8.7934375 11.16757812 -8.171875 11.25390625 C-7.37265625 11.35574219 -6.5734375 11.45757812 -5.75 11.5625 C-4.96109375 11.66691406 -4.1721875 11.77132813 -3.359375 11.87890625 C-0.99467126 12.00027349 0.7511037 11.69633257 3 11 C2.67 10.01 2.34 9.02 2 8 C-0.01508358 7.26676204 -0.01508358 7.26676204 -2 7 C-1.34 6.67 -0.68 6.34 0 6 C-0.185625 5.38125 -0.37125 4.7625 -0.5625 4.125 C-1 2 -1 2 0 0 Z " fill="#4574B2" transform="translate(404,412)"/>
<path d="M0 0 C7.62473143 2.14445571 14.65186794 9.54550639 19 16 C19.66015625 18.20703125 19.66015625 18.20703125 20 20 C19.34 20.33 18.68 20.66 18 21 C16 18 16 18 16 14 C15.071875 13.95875 14.14375 13.9175 13.1875 13.875 C12.135625 13.58625 11.08375 13.2975 10 13 C8.98308736 11.00854609 7.98357352 9.00812926 7 7 C3.93638223 5.56031273 3.93638223 5.56031273 1 5 C0.67 3.35 0.34 1.7 0 0 Z " fill="#366BAE" transform="translate(361,130)"/>
<path d="M0 0 C3 1 3 1 4.25 3.4375 C5 6 5 6 4 8 C3.01 6.68 2.02 5.36 1 4 C0.98018066 4.83249268 0.96036133 5.66498535 0.93994141 6.52270508 C0.86179258 9.614765 0.77509794 12.70643383 0.68261719 15.7980957 C0.62555908 17.7929536 0.57835558 19.7880854 0.53125 21.78320312 C0.47324219 23.66362305 0.47324219 23.66362305 0.4140625 25.58203125 C0.3826416 26.73936768 0.3512207 27.8967041 0.31884766 29.08911133 C0 32 0 32 -2 35 C-4.6015625 35.29296875 -4.6015625 35.29296875 -7.625 35.1875 C-9.12933594 35.14689453 -9.12933594 35.14689453 -10.6640625 35.10546875 C-11.43492187 35.07066406 -12.20578125 35.03585937 -13 35 C-13.33 34.34 -13.66 33.68 -14 33 C-10.37 33.33 -6.74 33.66 -3 34 C-3 33.01 -3 32.02 -3 31 C-2.34 31 -1.68 31 -1 31 C-1.00523682 30.09644775 -1.01047363 29.19289551 -1.01586914 28.26196289 C-1.03287686 24.92048511 -1.04543333 21.57905308 -1.05493164 18.23754883 C-1.05997101 16.78929927 -1.06680253 15.34105483 -1.07543945 13.89282227 C-1.08752247 11.81525412 -1.09323211 9.73775303 -1.09765625 7.66015625 C-1.10551147 5.78275757 -1.10551147 5.78275757 -1.11352539 3.86743164 C-1 1 -1 1 0 0 Z " fill="#6389BD" transform="translate(243,392)"/>
<path d="M0 0 C9.9 0 19.8 0 30 0 C30.33 0.99 30.66 1.98 31 3 C21.1 3 11.2 3 1 3 C0.67 2.01 0.34 1.02 0 0 Z " fill="#09479D" transform="translate(171,413)"/>
<path d="M0 0 C0.33 0 0.66 0 1 0 C1.38281159 5.23175837 0.21854707 8.37802694 -2 13 C-4.97 12.505 -4.97 12.505 -8 12 C-8 12.66 -8 13.32 -8 14 C-11.3 14 -14.6 14 -18 14 C-18.33 13.34 -18.66 12.68 -19 12 C-18.40832031 11.96261719 -17.81664062 11.92523438 -17.20703125 11.88671875 C-12.33428431 11.48131892 -9.09944801 10.85719103 -5 8 C-4.34 8 -3.68 8 -3 8 C-1.92474806 5.34771188 -0.90543849 2.71631546 0 0 Z " fill="#3267AC" transform="translate(76,401)"/>
<path d="M0 0 C0.66 0 1.32 0 2 0 C1.67 0.99 1.34 1.98 1 3 C0.34 3 -0.32 3 -1 3 C-1 4.32 -1 5.64 -1 7 C-1.99 7.495 -1.99 7.495 -3 8 C-3.65555119 10.52733235 -3.65555119 10.52733235 -4 13 C-4.928125 13.12375 -4.928125 13.12375 -5.875 13.25 C-8.18437567 13.81258459 -8.18437567 13.81258459 -9.25 16.0625 C-9.4975 16.701875 -9.745 17.34125 -10 18 C-10.66 18 -11.32 18 -12 18 C-12 18.99 -12 19.98 -12 21 C-12.99 21 -13.98 21 -15 21 C-13.3514785 17.30412114 -11.0660195 14.27799579 -8.625 11.0625 C-7.85414063 10.04285156 -7.08328125 9.02320313 -6.2890625 7.97265625 C-5.53367187 6.99167969 -4.77828125 6.01070313 -4 5 C-3.28585937 4.04996094 -2.57171875 3.09992188 -1.8359375 2.12109375 C-1.23007812 1.42113281 -0.62421875 0.72117187 0 0 Z " fill="#4C7BB4" transform="translate(279,368)"/>
<path d="M0 0 C2.64 0 5.28 0 8 0 C4.0097547 2.66016353 -0.18625293 4.02600104 -4.6875 5.625 C-5.56083984 5.94984375 -6.43417969 6.2746875 -7.33398438 6.609375 C-12.80694111 8.55495185 -17.19430572 9.36496798 -23 9 C-23 8.67 -23 8.34 -23 8 C-22.28972656 7.79503906 -21.57945312 7.59007812 -20.84765625 7.37890625 C-19.92855469 7.10949219 -19.00945312 6.84007812 -18.0625 6.5625 C-17.14597656 6.29566406 -16.22945312 6.02882813 -15.28515625 5.75390625 C-13.0597507 5.20973949 -13.0597507 5.20973949 -12 4 C-9.98688551 3.60430892 -7.96402792 3.25747809 -5.9375 2.9375 C-4.83277344 2.76089844 -3.72804687 2.58429688 -2.58984375 2.40234375 C-1.73519531 2.26957031 -0.88054687 2.13679688 0 2 C0 1.34 0 0.68 0 0 Z " fill="#4A7CB8" transform="translate(152,307)"/>
<path d="M0 0 C12.87 0.495 12.87 0.495 26 1 C25.67 1.66 25.34 2.32 25 3 C17.74 3 10.48 3 3 3 C1.68 5.97 0.36 8.94 -1 12 C-1.33 12 -1.66 12 -2 12 C-2.66 9.36 -3.32 6.72 -4 4 C-3.34 3.67 -2.68 3.34 -2 3 C-1.34 3.33 -0.68 3.66 0 4 C0 2.68 0 1.36 0 0 Z " fill="#6A94CD" transform="translate(313,413)"/>
<path d="M0 0 C1.98 0 3.96 0 6 0 C1.66670602 2.88886266 -3.06540311 4.39908775 -7.9375 6.1875 C-8.93974609 6.56841797 -9.94199219 6.94933594 -10.97460938 7.34179688 C-12.42383789 7.87450195 -12.42383789 7.87450195 -13.90234375 8.41796875 C-15.22480103 8.90946411 -15.22480103 8.90946411 -16.57397461 9.41088867 C-19.16452331 10.03995117 -20.51847702 9.88386465 -23 9 C-15.65777142 5.18204114 -8.39632206 2 0 2 C0 1.34 0 0.68 0 0 Z " fill="#4A79B5" transform="translate(228,281)"/>
<path d="M0 0 C0.56074219 0.48855469 1.12148437 0.97710937 1.69921875 1.48046875 C0.39984375 1.45984375 -0.89953125 1.43921875 -2.23828125 1.41796875 C-9.0236285 1.41796875 -15.62791497 2.2827748 -22.30078125 3.48046875 C-17.86681655 -2.25760322 -5.9627939 -3.9380761 0 0 Z " fill="#3D70B2" transform="translate(69.30078125,367.51953125)"/>
<path d="M0 0 C2.475 0.99 2.475 0.99 5 2 C5 5.51716303 4.17554415 6.37121748 2 9 C2.66 9.33 3.32 9.66 4 10 C3.01 10 2.02 10 1 10 C-0.60546875 8.03125 -0.60546875 8.03125 -2.1875 5.5 C-2.71730469 4.6646875 -3.24710937 3.829375 -3.79296875 2.96875 C-4.19128906 2.3190625 -4.58960937 1.669375 -5 1 C-3.68 1.33 -2.36 1.66 -1 2 C-0.67 1.34 -0.34 0.68 0 0 Z " fill="#2D68B6" transform="translate(122,400)"/>
<path d="M0 0 C1.125 1.5625 1.125 1.5625 2 4 C1.34 6.31 0.68 8.62 0 11 C-6.93 10.67 -13.86 10.34 -21 10 C-21 9.67 -21 9.34 -21 9 C-19.72382813 8.93941406 -18.44765625 8.87882812 -17.1328125 8.81640625 C-15.46352984 8.73200432 -13.79425963 8.64735614 -12.125 8.5625 C-11.28324219 8.52318359 -10.44148438 8.48386719 -9.57421875 8.44335938 C-8.36572266 8.38051758 -8.36572266 8.38051758 -7.1328125 8.31640625 C-6.38918457 8.27974854 -5.64555664 8.24309082 -4.87939453 8.20532227 C-2.91135688 8.10044135 -2.91135688 8.10044135 -1 7 C-0.59270772 4.67843403 -0.25561323 2.3431213 0 0 Z " fill="#2E62AC" transform="translate(467,368)"/>
<path d="M0 0 C5.36095277 1.58921525 10.70843973 3.18972938 16 5 C16 5.66 16 6.32 16 7 C14.02 7 12.04 7 10 7 C10 6.34 10 5.68 10 5 C8.02 5.66 6.04 6.32 4 7 C3.67 6.34 3.34 5.68 3 5 C3.66 5 4.32 5 5 5 C5 4.34 5 3.68 5 3 C3.68 3 2.36 3 1 3 C0.67 2.01 0.34 1.02 0 0 Z " fill="#4277B9" transform="translate(197,72)"/>
<path d="M0 0 C6.52307692 -0.36923077 6.52307692 -0.36923077 8.9375 1.5 C9.288125 1.995 9.63875 2.49 10 3 C9.67 3.66 9.34 4.32 9 5 C8.01 4.67 7.02 4.34 6 4 C5.67 5.32 5.34 6.64 5 8 C3.0625 7.375 3.0625 7.375 1 6 C0.25 2.875 0.25 2.875 0 0 Z " fill="#2B66B4" transform="translate(324,367)"/>
<path d="M0 0 C0.66 0 1.32 0 2 0 C1.36441803 2.92891899 0.42419834 5.39562664 -0.9375 8.0625 C-1.44603516 9.06990234 -1.44603516 9.06990234 -1.96484375 10.09765625 C-3 12 -3 12 -5 15 C-5.66 15 -6.32 15 -7 15 C-5.35544513 9.39356295 -3.66043672 4.60506555 0 0 Z " fill="#5380B7" transform="translate(322,368)"/>
<path d="M0 0 C2.97 0 5.94 0 9 0 C5.78036326 2.14642449 2.55570141 3.35881354 -1.0625 4.625 C-1.69994141 4.85445313 -2.33738281 5.08390625 -2.99414062 5.3203125 C-7.738258 7 -7.738258 7 -10 7 C-10 6.34 -10 5.68 -10 5 C-8.35 4.67 -6.7 4.34 -5 4 C-5 3.34 -5 2.68 -5 2 C-3.35 2 -1.7 2 0 2 C0 1.34 0 0.68 0 0 Z " fill="#4677B4" transform="translate(305,253)"/>
<path d="M0 0 C1.32 0 2.64 0 4 0 C4 0.66 4 1.32 4 2 C4.9075 1.95875 5.815 1.9175 6.75 1.875 C9.8782046 1.99531556 11.38614006 2.3914708 14 4 C14 4.99 14 5.98 14 7 C8.63904723 5.41078475 3.29156027 3.81027062 -2 2 C-1.34 1.34 -0.68 0.68 0 0 Z " fill="#3C70B4" transform="translate(153,145)"/>
<path d="M0 0 C-0.99 0.33 -1.98 0.66 -3 1 C-3 1.66 -3 2.32 -3 3 C-4.7015625 3.680625 -4.7015625 3.680625 -6.4375 4.375 C-10.04721692 5.57095806 -10.04721692 5.57095806 -11 8 C-12.65 8 -14.3 8 -16 8 C-12.59491053 4.04570255 -5.45732508 -2.72866254 0 0 Z " fill="#3F70B0" transform="translate(138,226)"/>
<path d="M0 0 C2.4375 0.625 2.4375 0.625 5 2 C6 4.9375 6 4.9375 6 8 C4.5625 9.875 4.5625 9.875 3 11 C3 10.01 3 9.02 3 8 C2.01 8.33 1.02 8.66 0 9 C-0.33 8.01 -0.66 7.02 -1 6 C-0.34 6 0.32 6 1 6 C1 5.34 1 4.68 1 4 C1 3.67 1 3.34 1 3 C0.67 2.01 0.34 1.02 0 0 Z " fill="#4379BB" transform="translate(317,240)"/>
<path d="M0 0 C1.32 0 2.64 0 4 0 C4 0.66 4 1.32 4 2 C5.98 2 7.96 2 10 2 C10 2.66 10 3.32 10 4 C11.32 4 12.64 4 14 4 C14.33 4.99 14.66 5.98 15 7 C3.47835991 3.92482916 3.47835991 3.92482916 -2 2 C-1.34 1.34 -0.68 0.68 0 0 Z " fill="#3C71B3" transform="translate(244,177)"/>
<path d="M0 0 C0.66 0 1.32 0 2 0 C5 6.5 5 6.5 5 11 C4.34 11 3.68 11 3 11 C2.67 10.01 2.34 9.02 2 8 C-0.01508358 7.26676204 -0.01508358 7.26676204 -2 7 C-1.34 6.67 -0.68 6.34 0 6 C-0.2784375 5.071875 -0.2784375 5.071875 -0.5625 4.125 C-1 2 -1 2 0 0 Z " fill="#2E67B0" transform="translate(404,412)"/>
<path d="M0 0 C1.32 0 2.64 0 4 0 C4 0.66 4 1.32 4 2 C5.32 2.66 6.64 3.32 8 4 C8 4.66 8 5.32 8 6 C7.34 6 6.68 6 6 6 C6 6.99 6 7.98 6 9 C5.01 8.67 4.02 8.34 3 8 C2.28272222 6.35448038 1.61674772 4.68577711 1 3 C0.34 2.34 -0.32 1.68 -1 1 C-0.67 0.67 -0.34 0.34 0 0 Z " fill="#0248AF" transform="translate(338,410)"/>
<path d="M0 0 C0.66 0.33 1.32 0.66 2 1 C1.39818232 7.31908569 -1.30538791 11.77484912 -6 16 C-6 14.35 -6 12.7 -6 11 C-5.34 11 -4.68 11 -4 11 C-3.34 9.02 -2.68 7.04 -2 5 C-1.34 5 -0.68 5 0 5 C0 3.35 0 1.7 0 0 Z " fill="#4D7CB8" transform="translate(89,404)"/>
<path d="M0 0 C0.66 0 1.32 0 2 0 C3.125 3.3125 3.125 3.3125 4 7 C3.01 8.485 3.01 8.485 2 10 C1.34 10 0.68 10 0 10 C-1.125 3.375 -1.125 3.375 0 0 Z " fill="#3D6FAF" transform="translate(354,415)"/>
<path d="M0 0 C0.33 0 0.66 0 1 0 C2.26305335 5.07476794 3.27036084 9.72796354 3 15 C3.66 15 4.32 15 5 15 C5.33 16.98 5.66 18.96 6 21 C1.54419007 17.14329057 0.25391052 11.29554694 -0.1875 5.56640625 C-0.1875 3.70988517 -0.10298126 1.8536627 0 0 Z " fill="#7FA0CC" transform="translate(32,394)"/>
<path d="M0 0 C6.00477279 0.64916463 11.400781 2.85795003 17 5 C16.01 5.66 15.02 6.32 14 7 C12.16796875 6.57421875 12.16796875 6.57421875 10.1875 5.6875 C6.79645737 4.27090918 3.66781074 3.45847634 0 3 C0 2.01 0 1.02 0 0 Z " fill="#4979B7" transform="translate(236,86)"/>
<path d="M0 0 C1.32 0.66 2.64 1.32 4 2 C3.071875 2.7425 2.14375 3.485 1.1875 4.25 C-1.27126958 6.29025561 -3.21647549 8.32471323 -5 11 C-5.125 7.625 -5.125 7.625 -5 4 C-4.34 3.34 -3.68 2.68 -3 2 C-2.01 2 -1.02 2 0 2 C0 1.34 0 0.68 0 0 Z " fill="#477AB9" transform="translate(53,381)"/>
<path d="M0 0 C5.28 0.66 10.56 1.32 16 2 C12.30041123 4.46639251 9.29267302 4.56790227 5 4 C2 2.5625 2 2.5625 0 1 C0 0.67 0 0.34 0 0 Z " fill="#2E61A9" transform="translate(121,311)"/>
<path d="M0 0 C0.66 0 1.32 0 2 0 C0.54955729 4.10958767 -1.51110752 7.43258745 -4 11 C-4.68707555 8.50935112 -5 6.62113708 -5 4 C-4.360625 3.71125 -3.72125 3.4225 -3.0625 3.125 C-0.84793921 2.17176549 -0.84793921 2.17176549 0 0 Z " fill="#4475B6" transform="translate(273,396)"/>
<path d="M0 0 C5.80205656 5.64524422 5.80205656 5.64524422 8 9 C8 9.66 8 10.32 8 11 C6.0625 10.6875 6.0625 10.6875 4 10 C3.67 9.01 3.34 8.02 3 7 C2.484375 6.525625 1.96875 6.05125 1.4375 5.5625 C0 4 0 4 0 0 Z " fill="#537FBC" transform="translate(248,377)"/>
<path d="M0 0 C4.43458973 1.3937282 6.87378374 3.60582235 10 7 C6.61976483 7 4.16531063 6.12544378 1 5 C0.67 3.35 0.34 1.7 0 0 Z " fill="#4070B4" transform="translate(361,130)"/>
<path d="M0 0 C0.33 0.66 0.66 1.32 1 2 C4.02934491 2.65772428 4.02934491 2.65772428 7 3 C7 3.66 7 4.32 7 5 C3.37 5 -0.26 5 -4 5 C-4 4.34 -4 3.68 -4 3 C-2.68 3 -1.36 3 0 3 C0 2.01 0 1.02 0 0 Z " fill="#2B62A8" transform="translate(438,422)"/>
<path d="M0 0 C1.4540625 0.0309375 1.4540625 0.0309375 2.9375 0.0625 C2.9375 1.0525 2.9375 2.0425 2.9375 3.0625 C3.9275 3.3925 4.9175 3.7225 5.9375 4.0625 C-0.9925 3.5675 -0.9925 3.5675 -8.0625 3.0625 C-6.7425 2.4025 -5.4225 1.7425 -4.0625 1.0625 C-3.0625 0.0625 -3.0625 0.0625 0 0 Z " fill="#074AA2" transform="translate(385.0625,377.9375)"/>
<path d="M0 0 C2.64 0 5.28 0 8 0 C5.14415227 1.90389849 3.0688238 2.69462177 -0.1875 3.625 C-1.08855469 3.88539063 -1.98960937 4.14578125 -2.91796875 4.4140625 C-3.94857422 4.70410156 -3.94857422 4.70410156 -5 5 C-5 4.01 -5 3.02 -5 2 C-3.35 2 -1.7 2 0 2 C0 1.34 0 0.68 0 0 Z " fill="#4678B9" transform="translate(192,293)"/>
<path d="M0 0 C1.32 0.33 2.64 0.66 4 1 C4 1.99 4 2.98 4 4 C4.66 4.33 5.32 4.66 6 5 C7.6875 6.875 7.6875 6.875 9 9 C8.67 9.99 8.34 10.98 8 12 C6.66382103 10.18959679 5.33112616 8.3766216 4 6.5625 C3.2575 5.55316406 2.515 4.54382813 1.75 3.50390625 C0 1 0 1 0 0 Z " fill="#5883BD" transform="translate(125,411)"/>
<path d="M0 0 C-0.33 1.32 -0.66 2.64 -1 4 C-2.65 4.33 -4.3 4.66 -6 5 C-6.33 3.35 -6.66 1.7 -7 0 C-3.86650268 -1.04449911 -3.01031744 -0.93423645 0 0 Z " fill="#215FAF" transform="translate(320,248)"/>
<path d="M0 0 C0 0.66 0 1.32 0 2 C-2.70879335 3.35439668 -5.00933268 3.06501451 -8 3 C-8 2.01 -8 1.02 -8 0 C-4.71023192 -1.09658936 -3.28696233 -0.79953138 0 0 Z " fill="#3F6FB3" transform="translate(265,409)"/>
<path d="M0 0 C0.33 0.66 0.66 1.32 1 2 C1.66 2 2.32 2 3 2 C3 1.34 3 0.68 3 0 C4.32 0 5.64 0 7 0 C6.34 2.31 5.68 4.62 5 7 C4.67 5.68 4.34 4.36 4 3 C2.02 3.33 0.04 3.66 -2 4 C-1.34 2.68 -0.68 1.36 0 0 Z " fill="#2160B3" transform="translate(392,391)"/>
<path d="M0 0 C0.66 0 1.32 0 2 0 C2 2.31 2 4.62 2 7 C2.99 7 3.98 7 5 7 C5 7.66 5 8.32 5 9 C3.35 8.67 1.7 8.34 0 8 C-1.125 2.25 -1.125 2.25 0 0 Z " fill="#3E6EA9" transform="translate(411,370)"/>
<path d="M0 0 C5.27315333 0.4452885 10.01770224 1.08373163 15 3 C14.67 3.66 14.34 4.32 14 5 C9.15311808 4.21824485 4.6233633 2.60155722 0 1 C0 0.67 0 0.34 0 0 Z " fill="#4F7CB6" transform="translate(314,203)"/>
<path d="M0 0 C4.54805635 -0.17835515 7.8794254 0.00214565 12 2 C11.67 2.66 11.34 3.32 11 4 C9.53984709 3.71758359 8.08190207 3.42373386 6.625 3.125 C5.81289062 2.96257812 5.00078125 2.80015625 4.1640625 2.6328125 C2 2 2 2 0 0 Z " fill="#4377B5" transform="translate(220,170)"/>
<path d="M0 0 C0.33 0 0.66 0 1 0 C1.25 2.75 1.25 2.75 1 6 C-1 8.375 -1 8.375 -3 10 C-3.99 9.67 -4.98 9.34 -6 9 C-5.01 8.67 -4.02 8.34 -3 8 C-1.81608777 5.62374655 -1.81608777 5.62374655 -1 3 C-0.67 2.01 -0.34 1.02 0 0 Z " fill="#638EC3" transform="translate(76,401)"/>
<path d="M0 0 C8.19256018 -0.63019694 8.19256018 -0.63019694 11.5625 2 C12.036875 2.66 12.51125 3.32 13 4 C12.34 4.66 11.68 5.32 11 6 C11 5.34 11 4.68 11 4 C10.34 4 9.68 4 9 4 C9 3.34 9 2.68 9 2 C6.03 1.67 3.06 1.34 0 1 C0 0.67 0 0.34 0 0 Z " fill="#658DBD" transform="translate(100,367)"/>
<path d="M0 0 C2.97 0.33 5.94 0.66 9 1 C9 1.66 9 2.32 9 3 C2.25 4.125 2.25 4.125 0 3 C0 2.01 0 1.02 0 0 Z " fill="#2E66AD" transform="translate(176,66)"/>
<path d="M0 0 C1.32 0.66 2.64 1.32 4 2 C1.63707344 4.52588702 0.33537489 5.88820837 -3 7 C-3 5.68 -3 4.36 -3 3 C-2.01 3 -1.02 3 0 3 C0 2.01 0 1.02 0 0 Z " fill="#3E71B1" transform="translate(79,418)"/>
<path d="M0 0 C0.66 0 1.32 0 2 0 C1.67 0.99 1.34 1.98 1 3 C0.34 3 -0.32 3 -1 3 C-1 4.32 -1 5.64 -1 7 C-2.65 7.66 -4.3 8.32 -6 9 C-4.4722133 5.56247993 -2.49818944 2.81046312 0 0 Z " fill="#5987BC" transform="translate(279,368)"/>
<path d="M0 0 C0.33 0.66 0.66 1.32 1 2 C-0.65 4.31 -2.3 6.62 -4 9 C-4.33 7.68 -4.66 6.36 -5 5 C-2.5625 2.25 -2.5625 2.25 0 0 Z " fill="#406DB2" transform="translate(122,54)"/>
<path d="M0 0 C1.65 0.99 3.3 1.98 5 3 C4.67 3.66 4.34 4.32 4 5 C1.4375 5.625 1.4375 5.625 -1 6 C-0.67 4.02 -0.34 2.04 0 0 Z " fill="#2C69B6" transform="translate(51,408)"/>
<path d="M0 0 C0.33 1.32 0.66 2.64 1 4 C-0.32 4.33 -1.64 4.66 -3 5 C-3 4.34 -3 3.68 -3 3 C-4.65 3.33 -6.3 3.66 -8 4 C-7.67 3.34 -7.34 2.68 -7 2 C-4.6859378 1.26924352 -2.35171131 0.59861742 0 0 Z " fill="#0647A0" transform="translate(162,217)"/>
<path d="M0 0 C0 0.66 0 1.32 0 2 C-0.66 2 -1.32 2 -2 2 C-2 2.66 -2 3.32 -2 4 C-2.99 3.67 -3.98 3.34 -5 3 C-7.3406065 3.27769908 -9.67624308 3.60539977 -12 4 C-8.14070855 1.42713903 -4.66785662 0 0 0 Z " fill="#5884BF" transform="translate(167,215)"/>
<path d="M0 0 C1.98 0 3.96 0 6 0 C6 0.66 6 1.32 6 2 C6.99 2 7.98 2 9 2 C9 2.66 9 3.32 9 4 C4.545 3.01 4.545 3.01 0 2 C0 1.34 0 0.68 0 0 Z " fill="#3B70B0" transform="translate(265,185)"/>
<path d="M0 0 C0.99 0.33 1.98 0.66 3 1 C3 1.66 3 2.32 3 3 C3.99 3 4.98 3 6 3 C6 4.65 6 6.3 6 8 C5.34 8 4.68 8 4 8 C0 2.58823529 0 2.58823529 0 0 Z " fill="#366CAE" transform="translate(118,126)"/>
<path d="M0 0 C0.66 0 1.32 0 2 0 C1.29445932 3.66881155 -0.27735506 6.70450534 -2 10 C-3.60920937 6.78158126 -2.0749168 4.28446801 -1 1 C-0.67 0.67 -0.34 0.34 0 0 Z " fill="#3E6FB4" transform="translate(322,368)"/>
<path d="M0 0 C-0.33 0.99 -0.66 1.98 -1 3 C-3.875 3.125 -3.875 3.125 -7 3 C-7.66 2.34 -8.32 1.68 -9 1 C-5.846632 0.29925156 -3.27275026 0 0 0 Z " fill="#4D78B6" transform="translate(310,425)"/>
<path d="M0 0 C0.99 0.33 1.98 0.66 3 1 C3.6875 3.0625 3.6875 3.0625 4 5 C3.01 5.495 3.01 5.495 2 6 C2 5.34 2 4.68 2 4 C0.35 4 -1.3 4 -3 4 C-2.34 3.67 -1.68 3.34 -1 3 C-0.67 2.01 -0.34 1.02 0 0 Z " fill="#2B64B0" transform="translate(351,410)"/>
<path d="M0 0 C0 1.65 0 3.3 0 5 C-1.98 5.33 -3.96 5.66 -6 6 C-2.61538462 0 -2.61538462 0 0 0 Z " fill="#396CB3" transform="translate(275,376)"/>
<path d="M0 0 C1.98 0.495 1.98 0.495 4 1 C4 2.32 4 3.64 4 5 C2.35 4.67 0.7 4.34 -1 4 C-0.67 2.68 -0.34 1.36 0 0 Z " fill="#0549A6" transform="translate(330,371)"/>
<path d="M0 0 C-2.95183101 2.95183101 -5.95511947 3.08663988 -10 4 C-10 3.34 -10 2.68 -10 2 C-6.5980513 -0.09350689 -3.94727588 -0.17942163 0 0 Z " fill="#5A85BC" transform="translate(177,301)"/>
<path d="M0 0 C0.66 0 1.32 0 2 0 C2.66 1.98 3.32 3.96 4 6 C2.0625 5.6875 2.0625 5.6875 0 5 C-0.33 4.01 -0.66 3.02 -1 2 C-0.67 1.34 -0.34 0.68 0 0 Z " fill="#3A72B6" transform="translate(404,412)"/>
<path d="M0 0 C1.98 0 3.96 0 6 0 C6.33 0.99 6.66 1.98 7 3 C4.69 3 2.38 3 0 3 C0 2.01 0 1.02 0 0 Z " fill="#2358A4" transform="translate(195,413)"/>
<path d="M0 0 C2.97 0.33 5.94 0.66 9 1 C9 1.66 9 2.32 9 3 C7.02 3 5.04 3 3 3 C3 2.34 3 1.68 3 1 C2.01 0.67 1.02 0.34 0 0 Z " fill="#2C63AC" transform="translate(204,76)"/>
<path d="M0 0 C3.3 0.33 6.6 0.66 10 1 C5.64467851 3.17766075 4.53374042 3.03039555 0 2 C0 1.34 0 0.68 0 0 Z " fill="#386AAA" transform="translate(156,424)"/>
<path d="M0 0 C0.33 0 0.66 0 1 0 C1 1.98 1 3.96 1 6 C-0.98 6.99 -0.98 6.99 -3 8 C-1.125 2.25 -1.125 2.25 0 0 Z " fill="#507FBB" transform="translate(312,387)"/>
<path d="M0 0 C2.89932357 2.39509338 3.50168276 4.31245243 4 8 C3.01 8.495 3.01 8.495 2 9 C0.50178941 5.62902617 0 3.79557881 0 0 Z " fill="#4C7DB8" transform="translate(403,375)"/>
<path d="M0 0 C1.98 0.99 1.98 0.99 4 2 C3.34 3.32 2.68 4.64 2 6 C1.34 6 0.68 6 0 6 C0 4.02 0 2.04 0 0 Z " fill="#205CA7" transform="translate(362,368)"/>
<path d="M0 0 C0.53625 0.226875 1.0725 0.45375 1.625 0.6875 C-3.79038462 3.76442308 -3.79038462 3.76442308 -6.75 3.375 C-7.554375 3.0346875 -7.554375 3.0346875 -8.375 2.6875 C-2.95961538 -0.38942308 -2.95961538 -0.38942308 0 0 Z " fill="#6B90C4" transform="translate(55.375,367.3125)"/>
<path d="M0 0 C1.65 0.33 3.3 0.66 5 1 C3.68 2.32 2.36 3.64 1 5 C0.01 4.67 -0.98 4.34 -2 4 C-1.34 2.68 -0.68 1.36 0 0 Z " fill="#2B69B8" transform="translate(294,232)"/>
<path d="M0 0 C5.75 0.75 5.75 0.75 8 3 C5.69 3.33 3.38 3.66 1 4 C0.67 2.68 0.34 1.36 0 0 Z " fill="#4B7ABA" transform="translate(273,99)"/>
<path d="" fill="#FFFFFF" transform="translate(0,0)"/>
<path d="" fill="#FFFFFF" transform="translate(0,0)"/>
<path d="" fill="#FFFFFF" transform="translate(0,0)"/>
<path d="" fill="#FFFFFF" transform="translate(0,0)"/>
<path d="" fill="#FFFFFF" transform="translate(0,0)"/>
<path d="" fill="#FFFFFF" transform="translate(0,0)"/>
<path d="" fill="#FFFFFF" transform="translate(0,0)"/>
<path d="" fill="#FFFFFF" transform="translate(0,0)"/>
<path d="" fill="#FFFFFF" transform="translate(0,0)"/>
<path d="" fill="#FFFFFF" transform="translate(0,0)"/>
<path d="" fill="#FFFFFF" transform="translate(0,0)"/>
<path d="" fill="#FFFFFF" transform="translate(0,0)"/>
<path d="" fill="#FFFFFF" transform="translate(0,0)"/>
<path d="" fill="#FFFFFF" transform="translate(0,0)"/>
<path d="" fill="#FFFFFF" transform="translate(0,0)"/>
<path d="" fill="#FFFFFF" transform="translate(0,0)"/>
<path d="" fill="#FFFFFF" transform="translate(0,0)"/>
<path d="" fill="#FFFFFF" transform="translate(0,0)"/>
<path d="" fill="#FFFFFF" transform="translate(0,0)"/>
<path d="" fill="#FFFFFF" transform="translate(0,0)"/>
<path d="" fill="#FFFFFF" transform="translate(0,0)"/>
<path d="" fill="#FFFFFF" transform="translate(0,0)"/>
<path d="" fill="#FFFFFF" transform="translate(0,0)"/>
<path d="" fill="#FFFFFF" transform="translate(0,0)"/>
<path d="" fill="#FFFFFF" transform="translate(0,0)"/>
<path d="" fill="#FFFFFF" transform="translate(0,0)"/>
<path d="" fill="#FFFFFF" transform="translate(0,0)"/>
<path d="" fill="#FFFFFF" transform="translate(0,0)"/>
<path d="" fill="#FFFFFF" transform="translate(0,0)"/>
<path d="" fill="#FFFFFF" transform="translate(0,0)"/>
<path d="" fill="#FFFFFF" transform="translate(0,0)"/>
<path d="" fill="#FFFFFF" transform="translate(0,0)"/>
<path d="" fill="#FFFFFF" transform="translate(0,0)"/>
<path d="" fill="#FFFFFF" transform="translate(0,0)"/>
<path d="" fill="#FFFFFF" transform="translate(0,0)"/>
<path d="" fill="#FFFFFF" transform="translate(0,0)"/>
<path d="" fill="#FFFFFF" transform="translate(0,0)"/>
<path d="" fill="#FFFFFF" transform="translate(0,0)"/>
<path d="" fill="#FFFFFF" transform="translate(0,0)"/>
<path d="" fill="#FFFFFF" transform="translate(0,0)"/>
<path d="" fill="#FFFFFF" transform="translate(0,0)"/>
<path d="" fill="#FFFFFF" transform="translate(0,0)"/>
<path d="" fill="#FFFFFF" transform="translate(0,0)"/>
<path d="" fill="#FFFFFF" transform="translate(0,0)"/>
<path d="" fill="#FFFFFF" transform="translate(0,0)"/>
<path d="" fill="#FFFFFF" transform="translate(0,0)"/>
<path d="" fill="#FFFFFF" transform="translate(0,0)"/>
<path d="" fill="#FFFFFF" transform="translate(0,0)"/>
<path d="" fill="#FFFFFF" transform="translate(0,0)"/>
<path d="" fill="#FFFFFF" transform="translate(0,0)"/>
<path d="" fill="#FFFFFF" transform="translate(0,0)"/>
<path d="" fill="#FFFFFF" transform="translate(0,0)"/>
<path d="" fill="#FFFFFF" transform="translate(0,0)"/>
<path d="" fill="#FFFFFF" transform="translate(0,0)"/>
<path d="" fill="#FFFFFF" transform="translate(0,0)"/>
<path d="" fill="#FFFFFF" transform="translate(0,0)"/>
<path d="" fill="#FFFFFF" transform="translate(0,0)"/>
<path d="" fill="#FFFFFF" transform="translate(0,0)"/>
<path d="" fill="#FFFFFF" transform="translate(0,0)"/>
<path d="" fill="#FFFFFF" transform="translate(0,0)"/>
<path d="" fill="#FFFFFF" transform="translate(0,0)"/>
<path d="" fill="#FFFFFF" transform="translate(0,0)"/>
<path d="" fill="#FFFFFF" transform="translate(0,0)"/>
<path d="" fill="#FFFFFF" transform="translate(0,0)"/>
<path d="" fill="#FFFFFF" transform="translate(0,0)"/>
<path d="" fill="#FFFFFF" transform="translate(0,0)"/>
<path d="" fill="#FFFFFF" transform="translate(0,0)"/>
<path d="" fill="#FFFFFF" transform="translate(0,0)"/>
<path d="" fill="#FFFFFF" transform="translate(0,0)"/>
<path d="" fill="#FFFFFF" transform="translate(0,0)"/>
</svg>
