<?xml version="1.0" encoding="UTF-8"?>
<!DOCTYPE svg PUBLIC "-//W3C//DTD SVG 1.1//EN" "http://www.w3.org/Graphics/SVG/1.1/DTD/svg11.dtd">
<svg xmlns="http://www.w3.org/2000/svg" version="1.1" width="500px" height="500px" style="shape-rendering:geometricPrecision; text-rendering:geometricPrecision; image-rendering:optimizeQuality; fill-rule:evenodd; clip-rule:evenodd" xmlns:xlink="http://www.w3.org/1999/xlink">
<g><path style="opacity:1" fill="#f0f1ea" d="M -0.5,-0.5 C 166.167,-0.5 332.833,-0.5 499.5,-0.5C 499.5,166.167 499.5,332.833 499.5,499.5C 332.833,499.5 166.167,499.5 -0.5,499.5C -0.5,332.833 -0.5,166.167 -0.5,-0.5 Z"/></g>
<g><path style="opacity:1" fill="#fdfdfc" d="M 326.5,293.5 C 318.12,291.008 310.787,292.675 304.5,298.5C 302.5,298.833 300.5,299.167 298.5,299.5C 298.5,297.5 298.5,295.5 298.5,293.5C 306.071,292.784 313.405,291.45 320.5,289.5C 324.815,286.191 329.148,282.857 333.5,279.5C 342.388,277.028 351.388,275.028 360.5,273.5C 359.975,268.4 358.975,263.4 357.5,258.5C 376.814,241.522 396.147,224.522 415.5,207.5C 383.183,172.683 350.683,138.016 318,103.5C 309.34,110.329 301.174,117.662 293.5,125.5C 283.659,116.079 271.992,110.079 258.5,107.5C 242.643,109.761 229.309,116.761 218.5,128.5C 209.672,121.157 200.505,114.157 191,107.5C 189.955,108.373 189.122,109.373 188.5,110.5C 158.202,139.631 128.035,168.964 98,198.5C 100.534,206.601 103.367,214.601 106.5,222.5C 136.5,245.5 166.5,268.5 196.5,291.5C 191.004,291.34 187.004,293.673 184.5,298.5C 155.591,277.098 127.091,255.098 99,232.5C 95.6667,221.833 92.3333,211.167 89,200.5C 88.245,197.697 88.5783,195.03 90,192.5C 122.833,161.667 155.667,130.833 188.5,100C 190.833,99.3333 193.167,99.3333 195.5,100C 201.342,103.754 207.009,107.754 212.5,112C 214.639,113.404 216.972,114.237 219.5,114.5C 227.115,111.028 234.782,107.528 242.5,104C 253.152,102.059 263.819,102.059 274.5,104C 281.023,106.688 287.523,109.188 294,111.5C 295.5,111.333 297,111.167 298.5,111C 304.5,105.667 310.5,100.333 316.5,95C 319.634,94.2099 322.634,94.5432 325.5,96C 360.03,130.862 394.196,166.029 428,201.5C 430,204.833 430,208.167 428,211.5C 410,228.167 392,244.833 374,261.5C 372.217,263.289 371.384,265.456 371.5,268C 372.008,271.364 372.674,274.697 373.5,278C 373.385,279.895 372.718,281.562 371.5,283C 356.568,286.819 341.568,290.319 326.5,293.5 Z"/></g>
<g><path style="opacity:1" fill="#ef7423" d="M 357.5,258.5 C 349.475,265.529 341.475,272.529 333.5,279.5C 329.148,282.857 324.815,286.191 320.5,289.5C 289.486,254.489 258.153,219.822 226.5,185.5C 226.196,184.85 225.863,184.183 225.5,183.5C 230.24,179.15 234.907,174.817 239.5,170.5C 241.749,169.92 243.415,168.587 244.5,166.5C 246.657,164.588 248.991,162.921 251.5,161.5C 255.258,166.435 259.258,171.268 263.5,176C 266,176.167 267.167,175 267,172.5C 262.422,167.667 258.588,162.333 255.5,156.5C 259.127,154.206 262.461,151.54 265.5,148.5C 267.167,147.167 268.833,145.833 270.5,144.5C 274.192,141.138 277.859,137.805 281.5,134.5C 282.833,133.5 284.167,132.5 285.5,131.5C 286.833,130.833 287.833,129.833 288.5,128.5C 293.958,132.124 298.625,136.624 302.5,142C 305.667,142.833 306.833,141.667 306,138.5C 302.303,133.638 298.136,129.304 293.5,125.5C 301.174,117.662 309.34,110.329 318,103.5C 350.683,138.016 383.183,172.683 415.5,207.5C 396.147,224.522 376.814,241.522 357.5,258.5 Z"/></g>
<g><path style="opacity:1" fill="#12b0e9" d="M 218.5,128.5 C 214.141,133.383 210.141,138.55 206.5,144C 207.059,146.188 208.393,146.854 210.5,146C 214.699,140.972 219.032,136.139 223.5,131.5C 227.506,134.934 231.672,138.268 236,141.5C 236.278,140.584 236.778,139.918 237.5,139.5C 237.5,144.833 237.5,150.167 237.5,155.5C 226.394,157.296 215.394,159.629 204.5,162.5C 203.84,163.964 203.507,165.631 203.5,167.5C 207.232,209.479 210.565,251.479 213.5,293.5C 212.778,293.082 212.278,292.416 212,291.5C 210.723,293.747 209.223,295.747 207.5,297.5C 204.927,293.71 201.26,291.71 196.5,291.5C 166.5,268.5 136.5,245.5 106.5,222.5C 134.213,185.453 161.546,148.119 188.5,110.5C 189.122,109.373 189.955,108.373 191,107.5C 200.505,114.157 209.672,121.157 218.5,128.5 Z"/></g>
<g><path style="opacity:1" fill="#18495c" d="M 293.5,125.5 C 298.136,129.304 302.303,133.638 306,138.5C 306.833,141.667 305.667,142.833 302.5,142C 298.625,136.624 293.958,132.124 288.5,128.5C 286.24,126.35 283.907,124.183 281.5,122C 280.833,121.333 280.167,121.333 279.5,122C 282.119,124.784 284.119,127.951 285.5,131.5C 284.167,132.5 282.833,133.5 281.5,134.5C 278.995,128.83 275.495,123.83 271,119.5C 271.55,122.903 272.05,126.403 272.5,130C 271.886,134.85 271.219,139.684 270.5,144.5C 268.833,145.833 267.167,147.167 265.5,148.5C 264.833,148.5 264.167,148.5 263.5,148.5C 266.598,140.776 267.765,132.776 267,124.5C 262.055,113.11 255.388,111.777 247,120.5C 243.778,127.446 243.778,134.446 247,141.5C 248.608,145.056 250.441,148.389 252.5,151.5C 253.11,153.434 254.11,155.101 255.5,156.5C 258.588,162.333 262.422,167.667 267,172.5C 267.167,175 266,176.167 263.5,176C 259.258,171.268 255.258,166.435 251.5,161.5C 250.226,158.24 248.56,155.24 246.5,152.5C 241.825,138.851 240.492,139.184 242.5,153.5C 242.982,157.873 243.648,162.206 244.5,166.5C 243.415,168.587 241.749,169.92 239.5,170.5C 239.315,165.43 238.648,160.43 237.5,155.5C 237.5,150.167 237.5,144.833 237.5,139.5C 237.796,131.914 238.963,124.581 241,117.5C 234.402,121.271 228.568,125.938 223.5,131.5C 219.032,136.139 214.699,140.972 210.5,146C 208.393,146.854 207.059,146.188 206.5,144C 210.141,138.55 214.141,133.383 218.5,128.5C 229.309,116.761 242.643,109.761 258.5,107.5C 271.992,110.079 283.659,116.079 293.5,125.5 Z"/></g>
<g><path style="opacity:1" fill="#fbfcfc" d="M 263.5,148.5 C 259.789,149.344 256.123,150.344 252.5,151.5C 250.441,148.389 248.608,145.056 247,141.5C 243.778,134.446 243.778,127.446 247,120.5C 255.388,111.777 262.055,113.11 267,124.5C 267.765,132.776 266.598,140.776 263.5,148.5 Z"/></g>
<g><path style="opacity:1" fill="#0e475b" d="M 188.5,110.5 C 161.546,148.119 134.213,185.453 106.5,222.5C 103.367,214.601 100.534,206.601 98,198.5C 128.035,168.964 158.202,139.631 188.5,110.5 Z"/></g>
<g><path style="opacity:1" fill="#f5f8f9" d="M 237.5,139.5 C 236.778,139.918 236.278,140.584 236,141.5C 231.672,138.268 227.506,134.934 223.5,131.5C 228.568,125.938 234.402,121.271 241,117.5C 238.963,124.581 237.796,131.914 237.5,139.5 Z"/></g>
<g><path style="opacity:1" fill="#f3f3f3" d="M 281.5,134.5 C 277.859,137.805 274.192,141.138 270.5,144.5C 271.219,139.684 271.886,134.85 272.5,130C 272.05,126.403 271.55,122.903 271,119.5C 275.495,123.83 278.995,128.83 281.5,134.5 Z"/></g>
<g><path style="opacity:1" fill="#e5e6e5" d="M 288.5,128.5 C 287.833,129.833 286.833,130.833 285.5,131.5C 284.119,127.951 282.119,124.784 279.5,122C 280.167,121.333 280.833,121.333 281.5,122C 283.907,124.183 286.24,126.35 288.5,128.5 Z"/></g>
<g><path style="opacity:1" fill="#4aadd8" d="M 246.5,152.5 C 245.167,152.833 243.833,153.167 242.5,153.5C 240.492,139.184 241.825,138.851 246.5,152.5 Z"/></g>
<g><path style="opacity:1" fill="#f2c930" d="M 263.5,148.5 C 264.167,148.5 264.833,148.5 265.5,148.5C 262.461,151.54 259.127,154.206 255.5,156.5C 254.11,155.101 253.11,153.434 252.5,151.5C 256.123,150.344 259.789,149.344 263.5,148.5 Z"/></g>
<g><path style="opacity:1" fill="#ebc72c" d="M 246.5,152.5 C 248.56,155.24 250.226,158.24 251.5,161.5C 248.991,162.921 246.657,164.588 244.5,166.5C 243.648,162.206 242.982,157.873 242.5,153.5C 243.833,153.167 245.167,152.833 246.5,152.5 Z"/></g>
<g><path style="opacity:1" fill="#f4cc27" d="M 237.5,155.5 C 238.648,160.43 239.315,165.43 239.5,170.5C 234.907,174.817 230.24,179.15 225.5,183.5C 225.863,184.183 226.196,184.85 226.5,185.5C 244.833,214.833 263.167,244.167 281.5,273.5C 277.861,279.746 275.194,286.412 273.5,293.5C 268.761,294.185 264.095,295.185 259.5,296.5C 257.398,291.024 255.565,285.358 254,279.5C 246.737,268.645 239.903,268.978 233.5,280.5C 223.209,241.335 213.542,202.001 204.5,162.5C 215.394,159.629 226.394,157.296 237.5,155.5 Z"/></g>
<g><path style="opacity:1" fill="#0d475b" d="M 204.5,162.5 C 213.542,202.001 223.209,241.335 233.5,280.5C 232.459,286.79 231.792,293.123 231.5,299.5C 225.563,297.299 219.563,295.299 213.5,293.5C 210.565,251.479 207.232,209.479 203.5,167.5C 203.507,165.631 203.84,163.964 204.5,162.5 Z"/></g>
<g><path style="opacity:1" fill="#144658" d="M 226.5,185.5 C 258.153,219.822 289.486,254.489 320.5,289.5C 313.405,291.45 306.071,292.784 298.5,293.5C 299.492,286.583 298.159,280.249 294.5,274.5C 290.389,270.98 286.056,270.647 281.5,273.5C 263.167,244.167 244.833,214.833 226.5,185.5 Z"/></g>
<g><path style="opacity:1" fill="#f7ce30" d="M 357.5,258.5 C 358.975,263.4 359.975,268.4 360.5,273.5C 351.388,275.028 342.388,277.028 333.5,279.5C 341.475,272.529 349.475,265.529 357.5,258.5 Z"/></g>
<g><path style="opacity:1" fill="#060505" d="M 259.5,296.5 C 261.029,304.086 263.362,311.42 266.5,318.5C 268.678,310.12 271.012,301.787 273.5,293.5C 275.194,286.412 277.861,279.746 281.5,273.5C 286.056,270.647 290.389,270.98 294.5,274.5C 298.159,280.249 299.492,286.583 298.5,293.5C 298.5,295.5 298.5,297.5 298.5,299.5C 297.174,315.96 295.007,332.293 292,348.5C 289,351.167 286,351.167 283,348.5C 282.012,345.576 281.346,342.576 281,339.5C 280.457,324.477 280.457,309.477 281,294.5C 277.53,304.577 273.863,314.577 270,324.5C 266.76,329.701 263.426,329.701 260,324.5C 256.798,315.228 253.798,305.895 251,296.5C 250.047,312.17 249.047,327.836 248,343.5C 245.988,351.052 241.988,352.385 236,347.5C 232.429,331.719 230.929,315.719 231.5,299.5C 231.792,293.123 232.459,286.79 233.5,280.5C 239.903,268.978 246.737,268.645 254,279.5C 255.565,285.358 257.398,291.024 259.5,296.5 Z"/></g>
<g><path style="opacity:1" fill="#090909" d="M 391.5,273.5 C 394.249,273.274 396.916,273.607 399.5,274.5C 400.502,280.486 400.502,286.486 399.5,292.5C 402.85,292.335 406.183,292.502 409.5,293C 410.925,294.714 410.592,296.047 408.5,297C 405.242,297.212 402.076,297.712 399,298.5C 397.473,310.123 397.139,321.79 398,333.5C 398.29,335.952 398.956,338.285 400,340.5C 402.267,341.935 404.267,341.602 406,339.5C 408.347,334.071 410.181,328.571 411.5,323C 413.769,322.242 415.936,322.409 418,323.5C 419.28,339.218 412.114,346.718 396.5,346C 391.355,343.503 388.522,339.337 388,333.5C 387.5,321.838 387.333,310.171 387.5,298.5C 384.939,298.553 382.939,297.553 381.5,295.5C 383.071,292.907 385.404,291.907 388.5,292.5C 389.039,286.057 390.039,279.724 391.5,273.5 Z"/></g>
<g><path style="opacity:1" fill="#070707" d="M 112.5,278.5 C 124.103,277.593 130.937,282.927 133,294.5C 135.729,306.962 134.396,318.962 129,330.5C 123.967,339.79 116.8,342.29 107.5,338C 105.044,335.592 103.211,332.759 102,329.5C 97.9055,317.241 97.5722,304.908 101,292.5C 103.213,286.354 107.046,281.687 112.5,278.5 Z"/></g>
<g><path style="opacity:1" fill="#e8e9e2" d="M 111.5,288.5 C 113.467,288.261 115.301,288.594 117,289.5C 121.598,301.448 121.598,313.448 117,325.5C 114,330.833 111,330.833 108,325.5C 105.085,315.939 104.752,306.272 107,296.5C 107.854,293.408 109.354,290.741 111.5,288.5 Z"/></g>
<g><path style="opacity:1" fill="#0d0d0d" d="M 196.5,291.5 C 201.26,291.71 204.927,293.71 207.5,297.5C 210.275,302.648 210.109,307.648 207,312.5C 202.484,314.905 197.65,316.238 192.5,316.5C 192.116,323.589 192.616,330.589 194,337.5C 197.294,340.311 200.294,339.978 203,336.5C 204.605,333.352 205.605,330.019 206,326.5C 208.645,325.292 209.812,326.292 209.5,329.5C 208.706,338.116 204.206,343.449 196,345.5C 188.657,343.818 184.323,339.151 183,331.5C 180.589,320.324 181.089,309.324 184.5,298.5C 187.004,293.673 191.004,291.34 196.5,291.5 Z"/></g>
<g><path style="opacity:1" fill="#050505" d="M 347.5,291.5 C 349.857,291.337 352.19,291.503 354.5,292C 356.46,294.106 358.294,296.273 360,298.5C 364.98,294.506 369.98,294.506 375,298.5C 377.408,302.142 378.075,306.142 377,310.5C 375.604,312.527 373.938,312.86 372,311.5C 370.404,300.187 366.07,298.854 359,307.5C 358.232,318.649 356.565,329.649 354,340.5C 351.034,343.265 348.367,342.932 346,339.5C 343.756,324.908 343.089,310.241 344,295.5C 345.376,294.295 346.542,292.962 347.5,291.5 Z"/></g>
<g><path style="opacity:1" fill="#0b0b0b" d="M 326.5,293.5 C 335.436,298.588 339.436,306.422 338.5,317C 338.032,326.005 336.532,334.838 334,343.5C 329.206,349.384 326.206,348.717 325,341.5C 320.909,345.305 316.076,346.472 310.5,345C 302.127,339.199 300.293,331.699 305,322.5C 310.853,314.951 317.853,313.617 326,318.5C 326.861,312.415 326.527,306.415 325,300.5C 320.015,294.992 315.348,295.325 311,301.5C 309.927,305.084 309.26,308.75 309,312.5C 306.368,315.192 304.034,314.859 302,311.5C 301.12,306.821 301.953,302.488 304.5,298.5C 310.787,292.675 318.12,291.008 326.5,293.5 Z"/></g>
<g><path style="opacity:1" fill="#f6f5f1" d="M 273.5,293.5 C 271.012,301.787 268.678,310.12 266.5,318.5C 263.362,311.42 261.029,304.086 259.5,296.5C 264.095,295.185 268.761,294.185 273.5,293.5 Z"/></g>
<g><path style="opacity:1" fill="#080807" d="M 143.5,295.5 C 148.809,294.565 152.309,296.565 154,301.5C 158.271,299.504 162.771,299.004 167.5,300C 172.64,301.14 175.807,304.306 177,309.5C 179.193,318.267 178.86,326.934 176,335.5C 175.394,338.548 173.894,341.048 171.5,343C 169.633,343.711 168.133,343.211 167,341.5C 167.14,330.171 167.14,318.838 167,307.5C 162.951,301.06 158.617,301.06 154,307.5C 153.324,318.582 151.991,329.582 150,340.5C 146.738,343.077 143.405,343.077 140,340.5C 138.528,327.198 138.195,313.864 139,300.5C 140.025,298.313 141.525,296.646 143.5,295.5 Z"/></g>
<g><path style="opacity:1" fill="#f0f0ef" d="M 196.5,296.5 C 202.928,297.331 205.428,300.998 204,307.5C 201.103,310.231 197.603,311.231 193.5,310.5C 192.909,305.436 193.909,300.769 196.5,296.5 Z"/></g>
<g><path style="opacity:1" fill="#eaebe4" d="M 317.5,319.5 C 324.662,318.745 327.662,321.911 326.5,329C 327.536,335.943 324.703,340.109 318,341.5C 315.966,341.646 314.299,340.98 313,339.5C 311.056,334.14 311.056,328.807 313,323.5C 314.397,321.93 315.897,320.596 317.5,319.5 Z"/></g>
<g><path style="opacity:1" fill="#232322" d="M 219.5,366.5 C 221.176,367.183 221.843,368.517 221.5,370.5C 223.167,370.5 224.833,370.5 226.5,370.5C 226.238,369.022 226.571,367.689 227.5,366.5C 228.833,369.833 228.833,373.167 227.5,376.5C 226.571,375.311 226.238,373.978 226.5,372.5C 224.833,372.5 223.167,372.5 221.5,372.5C 221.762,373.978 221.429,375.311 220.5,376.5C 219.513,373.232 219.18,369.898 219.5,366.5 Z"/></g>
<g><path style="opacity:1" fill="#4e4f4c" d="M 279.5,366.5 C 280.777,367.694 281.444,369.36 281.5,371.5C 281.167,373.167 280.833,374.833 280.5,376.5C 279.513,373.232 279.18,369.898 279.5,366.5 Z"/></g>
<g><path style="opacity:1" fill="#222222" d="M 287.5,366.5 C 290.428,367.591 292.594,369.591 294,372.5C 294.192,370.423 294.692,368.423 295.5,366.5C 297.569,378.089 295.735,379.089 290,369.5C 289.814,371.9 289.314,374.234 288.5,376.5C 287.513,373.232 287.18,369.898 287.5,366.5 Z"/></g>
<g><path style="opacity:1" fill="#272827" d="M 251.5,366.5 C 253.527,366.338 255.527,366.505 257.5,367C 260.167,369 260.167,371 257.5,373C 255.866,373.494 254.199,373.66 252.5,373.5C 251.22,373.637 250.887,371.303 251.5,366.5 Z"/></g>
<g><path style="opacity:1" fill="#ecece6" d="M 253.5,368.5 C 254.833,368.5 256.167,368.5 257.5,368.5C 257.5,369.5 257.5,370.5 257.5,371.5C 256.167,371.5 254.833,371.5 253.5,371.5C 253.5,370.5 253.5,369.5 253.5,368.5 Z"/></g>
<g><path style="opacity:1" fill="#272827" d="M 265.5,366.5 C 267.527,366.338 269.527,366.505 271.5,367C 274.167,369 274.167,371 271.5,373C 269.866,373.494 268.199,373.66 266.5,373.5C 265.22,373.637 264.887,371.303 265.5,366.5 Z"/></g>
<g><path style="opacity:1" fill="#ecece6" d="M 267.5,368.5 C 268.833,368.5 270.167,368.5 271.5,368.5C 271.5,369.5 271.5,370.5 271.5,371.5C 270.167,371.5 268.833,371.5 267.5,371.5C 267.5,370.5 267.5,369.5 267.5,368.5 Z"/></g>
<g><path style="opacity:1" fill="#212120" d="M 305.5,366.5 C 313.32,367.484 313.32,368.317 305.5,369C 303.666,373.675 305.333,375.508 310.5,374.5C 310.351,373.448 310.517,372.448 311,371.5C 311.934,376.083 310.1,377.583 305.5,376C 301.581,372.84 301.581,369.673 305.5,366.5 Z"/></g>
<g><path style="opacity:1" fill="#232322" d="M 207.5,366.5 C 214.576,366.857 214.909,367.857 208.5,369.5C 209.914,370.624 211.414,371.624 213,372.5C 213.684,373.784 213.517,374.951 212.5,376C 209.86,376.839 207.527,376.339 205.5,374.5C 207.424,374.433 209.424,374.1 211.5,373.5C 207.432,372.483 206.099,370.15 207.5,366.5 Z"/></g>
<g><path style="opacity:1" fill="#20201f" d="M 237.5,366.5 C 244.628,366.706 246.294,369.873 242.5,376C 238.168,377.336 235.501,375.836 234.5,371.5C 234.757,369.308 235.757,367.641 237.5,366.5 Z"/></g>
<g><path style="opacity:1" fill="#e5e6e0" d="M 237.5,368.5 C 242.123,367.408 243.956,369.075 243,373.5C 237.42,375.752 235.587,374.085 237.5,368.5 Z"/></g>
</svg>
